{
	"asset":{
		"generator":"Khronos glTF Blender I/O v5.0.21",
		"version":"2.0"
	},
	"extensionsUsed":[
		"KHR_materials_unlit",
		"EXT_texture_webp"
	],
	"scene":0,
	"scenes":[
		{
			"name":"Scene",
			"nodes":[
				0
			]
		}
	],
	"nodes":[
		{
			"mesh":0,
			"name":"Omacka",
			"scale":[
				0.8196275234222412,
				0.8196275234222412,
				0.8196275234222412
			],
			"translation":[
				0,
				-0.019999999552965164,
				0
			]
		}
	],
	"animations":[
		{
			"channels":[
				{
					"sampler":0,
					"target":{
						"node":0,
						"path":"translation"
					}
				}
			],
			"name":"OmackaAction",
			"samplers":[
				{
					"input":8,
					"interpolation":"LINEAR",
					"output":9
				}
			]
		}
	],
	"materials":[
		{
			"doubleSided":true,
			"extensions":{
				"KHR_materials_unlit":{}
			},
			"name":"Material.002",
			"pbrMetallicRoughness":{
				"baseColorTexture":{
					"index":0
				},
				"metallicFactor":0,
				"roughnessFactor":0.9
			}
		}
	],
	"meshes":[
		{
			"name":"Circle.002",
			"primitives":[
				{
					"attributes":{
						"POSITION":0,
						"NORMAL":1,
						"TEXCOORD_0":2,
						"TANGENT":3,
						"COLOR_0":4,
						"COLOR_1":5,
						"COLOR_2":6
					},
					"indices":7,
					"material":0
				}
			]
		}
	],
	"textures":[
		{
			"extensions":{
				"EXT_texture_webp":{
					"source":0
				}
			},
			"sampler":0,
			"source":1
		}
	],
	"images":[
		{
			"mimeType":"image/webp",
			"name":"Biela omacka",
			"uri":"smoatana%20TXT/Biela%20omacka.webp"
		},
		{
			"mimeType":"image/png",
			"name":"Biela omacka",
			"uri":"smoatana%20TXT/Biela%20omacka.png"
		}
	],
	"accessors":[
		{
			"bufferView":0,
			"componentType":5126,
			"count":57456,
			"max":[
				0.1470419019460678,
				0.015395142138004303,
				0.1360749751329422
			],
			"min":[
				-0.1371241956949234,
				-0.00567924790084362,
				-0.1381016969680786
			],
			"type":"VEC3"
		},
		{
			"bufferView":1,
			"componentType":5126,
			"count":57456,
			"type":"VEC3"
		},
		{
			"bufferView":2,
			"componentType":5126,
			"count":57456,
			"type":"VEC2"
		},
		{
			"bufferView":3,
			"componentType":5126,
			"count":57456,
			"type":"VEC4"
		},
		{
			"bufferView":4,
			"componentType":5121,
			"count":57456,
			"normalized":true,
			"type":"VEC4"
		},
		{
			"bufferView":5,
			"componentType":5123,
			"count":57456,
			"normalized":true,
			"type":"VEC4"
		},
		{
			"bufferView":6,
			"componentType":5123,
			"count":57456,
			"normalized":true,
			"type":"VEC4"
		},
		{
			"bufferView":7,
			"componentType":5123,
			"count":331776,
			"type":"SCALAR"
		},
		{
			"bufferView":8,
			"componentType":5126,
			"count":17,
			"max":[
				0.7083333333333334
			],
			"min":[
				0.041666666666666664
			],
			"type":"SCALAR"
		},
		{
			"bufferView":9,
			"componentType":5126,
			"count":17,
			"type":"VEC3"
		}
	],
	"bufferViews":[
		{
			"buffer":0,
			"byteLength":689472,
			"byteOffset":0,
			"target":34962
		},
		{
			"buffer":0,
			"byteLength":689472,
			"byteOffset":689472,
			"target":34962
		},
		{
			"buffer":0,
			"byteLength":459648,
			"byteOffset":1378944,
			"target":34962
		},
		{
			"buffer":0,
			"byteLength":919296,
			"byteOffset":1838592,
			"target":34962
		},
		{
			"buffer":0,
			"byteLength":229824,
			"byteOffset":2757888,
			"target":34962
		},
		{
			"buffer":0,
			"byteLength":459648,
			"byteOffset":2987712,
			"target":34962
		},
		{
			"buffer":0,
			"byteLength":459648,
			"byteOffset":3447360,
			"target":34962
		},
		{
			"buffer":0,
			"byteLength":663552,
			"byteOffset":3907008,
			"target":34963
		},
		{
			"buffer":0,
			"byteLength":68,
			"byteOffset":4570560
		},
		{
			"buffer":0,
			"byteLength":204,
			"byteOffset":4570628
		}
	],
	"samplers":[
		{
			"magFilter":9729,
			"minFilter":9987
		}
	],
	"buffers":[
		{
			"byteLength":4570832,
			"uri":"omacka%20smotana%20.bin"
		}
	]
}
