{
	"asset":{
		"generator":"Khronos glTF Blender I/O v5.0.21",
		"version":"2.0"
	},
	"extensionsUsed":[
		"KHR_materials_unlit",
		"EXT_texture_webp"
	],
	"scene":0,
	"scenes":[
		{
			"name":"Scene",
			"nodes":[
				0
			]
		}
	],
	"nodes":[
		{
			"mesh":0,
			"name":"stufed testo",
			"scale":[
				1.25,
				1,
				0.7200000286102295
			],
			"translation":[
				-1,
				0,
				0
			]
		}
	],
	"animations":[
		{
			"channels":[
				{
					"sampler":0,
					"target":{
						"node":0,
						"path":"translation"
					}
				},
				{
					"sampler":1,
					"target":{
						"node":0,
						"path":"scale"
					}
				}
			],
			"name":"TestoAction.001",
			"samplers":[
				{
					"input":7,
					"interpolation":"LINEAR",
					"output":8
				},
				{
					"input":7,
					"interpolation":"LINEAR",
					"output":9
				}
			]
		}
	],
	"materials":[
		{
			"doubleSided":true,
			"extensions":{
				"KHR_materials_unlit":{}
			},
			"name":"Material.001",
			"pbrMetallicRoughness":{
				"baseColorTexture":{
					"index":0
				},
				"metallicFactor":0,
				"roughnessFactor":0.9
			}
		}
	],
	"meshes":[
		{
			"name":"Circle.006",
			"primitives":[
				{
					"attributes":{
						"POSITION":0,
						"NORMAL":1,
						"TEXCOORD_0":2,
						"TANGENT":3,
						"COLOR_0":4,
						"COLOR_1":5
					},
					"indices":6,
					"material":0
				}
			]
		}
	],
	"textures":[
		{
			"extensions":{
				"EXT_texture_webp":{
					"source":0
				}
			},
			"sampler":0,
			"source":1
		}
	],
	"images":[
		{
			"mimeType":"image/webp",
			"name":"Stufed testo text",
			"uri":"stufed%20Text/Stufed%20testo%20text.webp"
		},
		{
			"mimeType":"image/png",
			"name":"Stufed testo text",
			"uri":"stufed%20Text/Stufed%20testo%20text.png"
		}
	],
	"accessors":[
		{
			"bufferView":0,
			"componentType":5126,
			"count":35403,
			"max":[
				0.13759000599384308,
				0.02292267419397831,
				0.1408294439315796
			],
			"min":[
				-0.13328184187412262,
				-0.0032475630287081003,
				-0.1367233246564865
			],
			"type":"VEC3"
		},
		{
			"bufferView":1,
			"componentType":5126,
			"count":35403,
			"type":"VEC3"
		},
		{
			"bufferView":2,
			"componentType":5126,
			"count":35403,
			"type":"VEC2"
		},
		{
			"bufferView":3,
			"componentType":5126,
			"count":35403,
			"type":"VEC4"
		},
		{
			"bufferView":4,
			"componentType":5121,
			"count":35403,
			"normalized":true,
			"type":"VEC4"
		},
		{
			"bufferView":5,
			"componentType":5123,
			"count":35403,
			"normalized":true,
			"type":"VEC4"
		},
		{
			"bufferView":6,
			"componentType":5123,
			"count":190464,
			"type":"SCALAR"
		},
		{
			"bufferView":7,
			"componentType":5126,
			"count":22,
			"max":[
				0.9166666666666666
			],
			"min":[
				0.041666666666666664
			],
			"type":"SCALAR"
		},
		{
			"bufferView":8,
			"componentType":5126,
			"count":22,
			"type":"VEC3"
		},
		{
			"bufferView":9,
			"componentType":5126,
			"count":22,
			"type":"VEC3"
		}
	],
	"bufferViews":[
		{
			"buffer":0,
			"byteLength":424836,
			"byteOffset":0,
			"target":34962
		},
		{
			"buffer":0,
			"byteLength":424836,
			"byteOffset":424836,
			"target":34962
		},
		{
			"buffer":0,
			"byteLength":283224,
			"byteOffset":849672,
			"target":34962
		},
		{
			"buffer":0,
			"byteLength":566448,
			"byteOffset":1132896,
			"target":34962
		},
		{
			"buffer":0,
			"byteLength":141612,
			"byteOffset":1699344,
			"target":34962
		},
		{
			"buffer":0,
			"byteLength":283224,
			"byteOffset":1840956,
			"target":34962
		},
		{
			"buffer":0,
			"byteLength":380928,
			"byteOffset":2124180,
			"target":34963
		},
		{
			"buffer":0,
			"byteLength":88,
			"byteOffset":2505108
		},
		{
			"buffer":0,
			"byteLength":264,
			"byteOffset":2505196
		},
		{
			"buffer":0,
			"byteLength":264,
			"byteOffset":2505460
		}
	],
	"samplers":[
		{
			"magFilter":9729,
			"minFilter":9987
		}
	],
	"buffers":[
		{
			"byteLength":2505724,
			"uri":"stuffed%20testo.bin"
		}
	]
}
