{
	"asset":{
		"generator":"Khronos glTF Blender I/O v5.0.21",
		"version":"2.0"
	},
	"extensionsUsed":[
		"KHR_materials_unlit",
		"EXT_texture_webp"
	],
	"scene":0,
	"scenes":[
		{
			"name":"Scene",
			"nodes":[
				0
			]
		}
	],
	"nodes":[
		{
			"mesh":0,
			"name":"Testo",
			"scale":[
				1.25,
				1,
				0.7200000286102295
			],
			"translation":[
				-1,
				0,
				0
			]
		}
	],
	"animations":[
		{
			"channels":[
				{
					"sampler":0,
					"target":{
						"node":0,
						"path":"translation"
					}
				},
				{
					"sampler":1,
					"target":{
						"node":0,
						"path":"scale"
					}
				}
			],
			"name":"TestoAction",
			"samplers":[
				{
					"input":7,
					"interpolation":"LINEAR",
					"output":8
				},
				{
					"input":7,
					"interpolation":"LINEAR",
					"output":9
				}
			]
		}
	],
	"materials":[
		{
			"doubleSided":true,
			"extensions":{
				"KHR_materials_unlit":{}
			},
			"name":"Material.001",
			"pbrMetallicRoughness":{
				"baseColorTexture":{
					"index":0
				},
				"metallicFactor":0,
				"roughnessFactor":0.9
			}
		}
	],
	"meshes":[
		{
			"name":"Circle",
			"primitives":[
				{
					"attributes":{
						"POSITION":0,
						"NORMAL":1,
						"TEXCOORD_0":2,
						"TANGENT":3,
						"COLOR_0":4,
						"COLOR_1":5
					},
					"indices":6,
					"material":0
				}
			]
		}
	],
	"textures":[
		{
			"extensions":{
				"EXT_texture_webp":{
					"source":0
				}
			},
			"sampler":0,
			"source":1
		}
	],
	"images":[
		{
			"mimeType":"image/webp",
			"name":"testo text",
			"uri":"testo%20TXT/testo%20text.webp"
		},
		{
			"mimeType":"image/png",
			"name":"testo text",
			"uri":"testo%20TXT/testo%20text.png"
		}
	],
	"accessors":[
		{
			"bufferView":0,
			"componentType":5126,
			"count":34183,
			"max":[
				0.12836085259914398,
				0.014007912948727608,
				0.12970761954784393
			],
			"min":[
				-0.12961865961551666,
				-0.00042151263915002346,
				-0.13056981563568115
			],
			"type":"VEC3"
		},
		{
			"bufferView":1,
			"componentType":5126,
			"count":34183,
			"type":"VEC3"
		},
		{
			"bufferView":2,
			"componentType":5126,
			"count":34183,
			"type":"VEC2"
		},
		{
			"bufferView":3,
			"componentType":5126,
			"count":34183,
			"type":"VEC4"
		},
		{
			"bufferView":4,
			"componentType":5121,
			"count":34183,
			"normalized":true,
			"type":"VEC4"
		},
		{
			"bufferView":5,
			"componentType":5123,
			"count":34183,
			"normalized":true,
			"type":"VEC4"
		},
		{
			"bufferView":6,
			"componentType":5123,
			"count":190464,
			"type":"SCALAR"
		},
		{
			"bufferView":7,
			"componentType":5126,
			"count":22,
			"max":[
				0.9166666666666666
			],
			"min":[
				0.041666666666666664
			],
			"type":"SCALAR"
		},
		{
			"bufferView":8,
			"componentType":5126,
			"count":22,
			"type":"VEC3"
		},
		{
			"bufferView":9,
			"componentType":5126,
			"count":22,
			"type":"VEC3"
		}
	],
	"bufferViews":[
		{
			"buffer":0,
			"byteLength":410196,
			"byteOffset":0,
			"target":34962
		},
		{
			"buffer":0,
			"byteLength":410196,
			"byteOffset":410196,
			"target":34962
		},
		{
			"buffer":0,
			"byteLength":273464,
			"byteOffset":820392,
			"target":34962
		},
		{
			"buffer":0,
			"byteLength":546928,
			"byteOffset":1093856,
			"target":34962
		},
		{
			"buffer":0,
			"byteLength":136732,
			"byteOffset":1640784,
			"target":34962
		},
		{
			"buffer":0,
			"byteLength":273464,
			"byteOffset":1777516,
			"target":34962
		},
		{
			"buffer":0,
			"byteLength":380928,
			"byteOffset":2050980,
			"target":34963
		},
		{
			"buffer":0,
			"byteLength":88,
			"byteOffset":2431908
		},
		{
			"buffer":0,
			"byteLength":264,
			"byteOffset":2431996
		},
		{
			"buffer":0,
			"byteLength":264,
			"byteOffset":2432260
		}
	],
	"samplers":[
		{
			"magFilter":9729,
			"minFilter":9987
		}
	],
	"buffers":[
		{
			"byteLength":2432524,
			"uri":"testo.bin"
		}
	]
}
