<svg width="64" height="64" viewBox="0 0 64 64" fill="none" xmlns="http://www.w3.org/2000/svg">
<path d="M46.5001 17C52.2989 17.0001 57.0001 21.2534 57.0001 26.5C57.0001 26.6664 56.9948 26.8318 56.9854 26.9961L57.0001 27C57.1667 30 55.9999 36.5 54.0001 40C51.3632 44.6148 43.5 61.4999 20.0001 56C16.5001 55 9.50002 51.5 7.00006 47L6.98248 46.958C6.14797 44.9556 4.83643 41.8084 10.0001 43L16.0001 45C18.1669 45.4999 23.4002 45.3998 27.0001 41C30.3329 36.9265 34.2064 28.6809 36.4825 23.6445C37.8223 19.7931 41.8008 17 46.5001 17Z" fill="#D02928"/>
<path d="M6.27607 43.666C6.43578 44.1726 6.63956 44.6802 6.82295 45.1328L6.8415 45.1787C9.44884 50.0052 16.7483 53.7595 20.3981 54.832C34.2619 58.1693 42.9055 53.8206 48.2976 48.5195C43.2873 54.1171 34.7055 59.4417 20.0001 56C16.5001 55 9.50002 51.5 7.00006 47L6.98248 46.958C6.54674 45.9125 5.98222 44.5551 6.27607 43.666Z" fill="black" fill-opacity="0.2"/>
<path d="M44.1633 17.9458L56.3345 24.553C56.5449 25.1117 56.7692 25.6147 56.9995 26L56.9995 27.8874C56.5912 28.2269 55.8525 28.1922 54.9995 27.5C53.283 26.107 52.6995 23.7 49.4995 24.5C49.3328 23 48.7481 20.5651 42.9995 21.5C42.0403 21.656 40.9604 19.0787 43.9995 18C44.052 17.9814 44.1067 17.9633 44.1633 17.9458Z" fill="black" fill-opacity="0.2"/>
<path d="M55 11C55 7.4 53 6.5 52 6C51.1095 5.55474 50.4957 5.5 49.5 5.5C48.5044 5.5 47.5 5.5 47 6C46.5001 6.49999 46.5 7.33333 46.5 7.5C46.5 8.5 47.3568 8.67502 48 8.5C48.8631 8.26518 50.0037 7.93986 50.5 8C53.3079 8.34023 53.4907 12.3784 52.5 14C51.3204 15.9309 46.0479 15.7731 44 16.5C40.9609 17.5787 42.0408 20.156 43 20C48.7486 19.0651 49.3333 21.5 49.5 23C52.7 22.2 53.2835 24.607 55 26C56.7166 27.393 57.9702 26.1231 57 24.5C56.0298 22.8769 55.1667 19.1667 55 18C54.6134 15.2938 55 13.7337 55 11Z" fill="#617D29"/>
</svg>
