<svg width="64" height="64" viewBox="0 0 64 64" fill="none" xmlns="http://www.w3.org/2000/svg">
<path d="M11.9999 32C11.5999 31.2 12.1665 29.3333 12.4999 28.5L17.5 34C16.7 36 18.1667 36.8333 19 37C21.4 37 21.3333 37.6667 21 38C19.8 39.2 18.1667 38.8333 17.5 38.5C15.1 36.9 12.8333 33.5 11.9999 32Z" fill="#405325"/>
<path d="M12.5001 29.5C17.154 35.222 21.5001 37.5 23.0001 38L24 37L14.0001 26C12.4001 27.6 12.1675 29.0911 12.5001 29.5Z" fill="#4A6427"/>
<path d="M23.4999 37L25.9999 40L18 47L14.9999 53C14.5999 52.6 14.8332 51.1667 14.9999 50.5C14.9999 50.5 15.7391 47.0923 16.4999 45C18.0999 40.6 21.8332 37.8333 23.4999 37Z" fill="#405325"/>
<path d="M38.5001 14.5C38.1001 12.5 34.6667 9.3332 33 7.99987C32.8475 7.87789 33 8.5 32.5 7.99987L35.0001 13.5C37.0001 13.9 37.5001 15 37.5001 15.5C37.5001 17.1 37.8334 17.5 38.0001 17.5C38.4001 17.1 38.5001 15.3333 38.5001 14.5Z" fill="#405325"/>
<path d="M32.9999 7.9999C32.5999 8.7999 36.8334 16.6665 39 20.4999L38.9999 22C38.9999 22 29.5 13.5 28.9999 12.4998C28.4999 11.4997 28.297 10.4371 28.9999 9.49986C30.1999 7.89986 31.9999 7.49996 32.9999 7.9999Z" fill="#4A6427"/>
<path d="M34.6197 16.3655C41.4874 24.2994 43.2079 34.061 38.4625 38.1687C33.717 42.2764 24.3028 39.1747 17.4351 31.2408C10.5674 23.307 8.84689 13.5453 13.5923 9.43763C18.3377 5.32992 27.752 8.43164 34.6197 16.3655Z" fill="#E7BE01"/>
<path d="M28.5 43L16.5 30L35 17L39 21.5L45 43.5L28.5 43Z" fill="#E7BE01"/>
<path d="M46.9132 50.039C50.4131 48.3724 55.213 44.439 46.4131 42.039C43.3382 39.9103 37.1021 36.8655 33 36.1922C28.8979 35.519 26 41.9501 26 41.9501C26.7945 42.0869 27.6034 42.4317 28.4132 43.039L40.9132 51.039C41.4132 51.3724 43.3132 51.639 46.9132 50.039Z" fill="#B99801"/>
<path d="M38.5 21C38.6596 25.8839 37.9229 32.3202 41.1112 40.5079C42.5347 44.1634 45.1043 52.7754 48.6112 50.5079C51.8906 48.3876 53.9449 44.4252 50.6112 39.5079C47.6785 35.1821 42.6181 26.408 41.3865 21.6927L38.5 21Z" fill="#B99801"/>
<path d="M28 39.0001C32.7646 36.8792 42.1666 41.5001 46.5 44.5001C55.2999 46.9001 50.5 50.8335 47.0001 52.5001C43.4001 54.1001 41.5001 53.8334 41.0001 53.5001L28.5001 45.5001C23.7001 41.9001 18.9323 47.5255 17 51C15.953 52.8825 17.6888 53.7068 19.0001 54.0001C20.2345 54.2762 20.8334 52.8334 21.0001 52.0001C21.5 53 20.958 54.8882 20.5 55C14.5558 56.4512 14.6666 52.0001 15.5 50.0001C18.3 42.4001 25.2214 40.237 28 39.0001Z" fill="#4A6427"/>
<path d="M52.9999 38.9999C56.3336 43.9172 54.2793 47.8796 50.9999 49.9999C47.493 52.2674 44.9234 43.6554 43.4999 40C39.668 30.1594 37.9118 19.96 38.4999 16C39.2838 10.7212 41.3716 8.66748 45.4999 8.49996C49.6282 8.33244 52.3333 10.8333 52 12C51.6667 13.1667 50.9999 14.5 50.9999 14.5C50.1999 15.3 50.3332 14.8333 50.4999 14.5C52.0999 11.7 50.1666 10.3333 48.9999 9.99995C44.2 8.4 43.4166 15.5824 43.4999 19.4999C43.5833 23.4175 49.6662 34.0827 52.9999 38.9999Z" fill="#4A6427"/>
<path d="M53.3885 46.8047L54.1471 47.6886C54.8665 48.5268 54.7701 49.7895 53.9319 50.5088L50.5788 53.3866C49.7406 54.106 48.478 54.0096 47.7586 53.1714L47 52.2875L53.3885 46.8047Z" fill="#4A6427"/>
<path d="M54.5147 49.7499L54.909 50.2094C55.6284 51.0476 55.5321 52.3102 54.6939 53.0296L53.1146 54.385C52.2764 55.1044 51.0137 55.008 50.2943 54.1698L49.9 53.7104L54.5147 49.7499Z" fill="#4A6427"/>
</svg>
