<svg width="64" height="64" viewBox="0 0 64 64" fill="none" xmlns="http://www.w3.org/2000/svg">
<path d="M45.9229 39C45.9229 43 47 52 47 52.5C47 52.9922 43.0345 58.3295 33.46 58.4961L33 58.5C23.0923 58.5 19 53 19 52.5C19 52 20.0771 43 20.0771 39C23.5234 39.8 30.1283 40 33 40L34.2383 39.9902C37.4734 39.941 42.9074 39.7 45.9229 39Z" fill="#CE8E52"/>
<path d="M45.9229 39C45.9229 39.8263 45.97 40.8659 46.043 42H46C36.0108 43.5983 24.5249 42.0031 20.0146 41.0029C20.053 40.2582 20.0771 39.5771 20.0771 39C23.5234 39.8 30.1283 40 33 40L34.2383 39.9902C37.4734 39.941 42.9074 39.7 45.9229 39Z" fill="black" fill-opacity="0.2"/>
<path d="M5 27C5 9 23.5 5.5 33 5.5V40.5C20.5 40.5 14.5 38.6666 13 37.9999C6.6 35.9999 5 29.8333 5 27Z" fill="#C26B3F"/>
<path d="M61 27C61 9 42.5 5.5 33 5.5V40.5C45.5 40.5 51.5 38.6665 53 37.9999C59.4 35.9999 61 29.8333 61 27Z" fill="#C26B3F"/>
</svg>
