<svg width="64" height="64" viewBox="0 0 64 64" fill="none" xmlns="http://www.w3.org/2000/svg">
<g clip-path="url(#clip0_41_142)">
<path d="M49.0254 21.4337C56.6819 33.775 55.2123 48.542 45.743 54.4167C36.2737 60.2914 22.3905 55.0493 14.734 42.708C5.6138 30.4157 6.71809 15.6609 18.0164 9.72504C27.6263 2.90542 41.4627 8.45586 49.0254 21.4337Z" fill="#69711B"/>
<path d="M8.66528 24.5615C8.7308 30.9237 11.6883 37.8322 17.343 43.7109C25.1801 53.3492 36.751 57.4498 45.6145 54.4932C36.1485 60.2426 22.3559 54.994 14.7336 42.708C10.3582 36.8107 8.33747 30.3466 8.66528 24.5615Z" fill="black" fill-opacity="0.2"/>
<ellipse cx="20.0638" cy="15.2518" rx="9.4189" ry="5.12859" transform="rotate(-31.9112 20.0638 15.2518)" fill="#2C2B07"/>
<ellipse cx="19.8353" cy="14.9582" rx="6.01329" ry="3.27424" transform="rotate(-31.9112 19.8353 14.9582)" fill="#A22B06"/>
</g>
<defs>
<clipPath id="clip0_41_142">
<rect width="64" height="64" fill="white"/>
</clipPath>
</defs>
</svg>
