<svg width="64" height="64" viewBox="0 0 64 64" fill="none" xmlns="http://www.w3.org/2000/svg">
<path d="M33.9946 2.006C27.0651 4.3054 27.3538 16.7605 28.3644 22.7006L22.301 25C20.2221 6.14492 29.2306 1.81438 33.9946 2.006Z" fill="#7AA81E"/>
<path d="M33.9946 2.006C27.0651 4.3054 27.3538 16.7605 28.3644 22.7006L26.9947 23.4999C24.9158 4.64487 31.4946 2.49988 33.9946 2.006Z" fill="black" fill-opacity="0.2"/>
<path d="M39.9945 6.00009C31.9945 8.00009 32.3279 18.8334 33.4945 24.0001L26.4946 26.0001C24.0946 9.60009 34.4946 5.83342 39.9945 6.00009Z" fill="#68862B"/>
<path d="M38.3048 6.60609C32.0503 9.62104 32.4169 19.2278 33.4945 24.0001L31.9945 24.5C30.6663 12.546 34.0427 8.43281 38.3048 6.60609C38.8217 6.35691 39.3838 6.15276 39.9945 6.00009C39.422 6.17186 38.856 6.36985 38.3048 6.60609Z" fill="black" fill-opacity="0.2"/>
<path d="M23.5051 3.76392C18.3376 9.05474 24.0576 18.4847 27.5635 22.5383L23.168 27.3888C13.0456 13.9479 19.1751 6.03851 23.5051 3.76392Z" fill="#68862B"/>
<path d="M24.3124 20.5094L25.481 19.8082C22.3187 15.1488 19.2901 8.07949 23.5051 3.76392C22.1202 4.43894 17.3807 9.96011 24.3124 20.5094Z" fill="black" fill-opacity="0.2"/>
<path d="M25.9945 19.5498L22.1306 22.1579C18.6159 18.1118 10.0939 11.1107 4.1228 15.4745C6.80478 11.7664 14.5933 7.19954 25.305 16.3976L25.9945 19.5498Z" fill="#7AA81E"/>
<path d="M4.1228 15.4745C10.0939 11.1107 18.6159 18.1118 22.1306 22.1579L22.9944 21C11.4946 10.0001 5.78272 14.2614 4.1228 15.4745Z" fill="black" fill-opacity="0.2"/>
<path d="M2 20.5398C7.33499 15.5554 18.1333 21.769 22.8656 25.4988L27.7861 21.275C12.2247 10.4271 4.11145 16.2649 2 20.5398Z" fill="#68862B"/>
<path d="M2 20.5398C7.33499 15.5554 18.1333 21.769 22.8656 25.4988L24.4948 24.5001C9.99484 14.5 3.49478 18.4999 2 20.5398Z" fill="black" fill-opacity="0.2"/>
<path d="M4.99951 28.7865C9.92696 22.1744 19.7958 26.6553 24.1143 29.7223L28.6565 24.033C14.4467 15.5005 6.96444 23.6468 4.99951 28.7865Z" fill="#7AA81E"/>
<path d="M5.4176 28.2654C10.4662 22.42 19.9147 26.7397 24.1143 29.7223L24.9947 28.5001C11.9261 20.6528 7.2478 25.9709 5.4176 28.2654C5.27468 28.4309 5.13516 28.6045 4.99951 28.7865C5.11958 28.6431 5.25779 28.4658 5.4176 28.2654Z" fill="black" fill-opacity="0.2"/>
<path d="M52.1696 30.6674C58.2037 40.2663 56.9751 52.0022 49.4256 56.8803C41.8761 61.7583 30.8644 57.9314 24.8304 48.3326C18.7963 38.7337 20.0249 26.9978 27.5744 22.1197C35.1239 17.2417 46.1356 21.0686 52.1696 30.6674Z" fill="#DA972F"/>
<path d="M21.0469 36.9555C21.5915 39.7563 22.6752 42.5581 24.3239 45.1809C30.5065 55.0159 42.2897 58.6128 50.6431 53.2154C52.5604 51.9766 54.1288 50.3707 55.3351 48.514C54.3761 51.9961 52.3876 54.9662 49.4256 56.8803C41.8761 61.7583 30.8644 57.9314 24.8304 48.3326C22.5371 44.6844 21.2937 40.7273 21.0469 36.9555Z" fill="black" fill-opacity="0.2"/>
</svg>
