<svg width="64" height="64" viewBox="0 0 64 64" fill="none" xmlns="http://www.w3.org/2000/svg">
<circle cx="32" cy="32" r="24" fill="#951A1D"/>
<circle cx="32" cy="32" r="22" fill="#E8656B"/>
<circle cx="18" cy="29" r="4" fill="#E6D3CC"/>
<circle cx="34.5" cy="32.5" r="3.5" fill="#E6D3CC"/>
<circle cx="46" cy="26" r="4" fill="#E6D3CC"/>
<circle cx="33" cy="45" r="4" fill="#E6D3CC"/>
<circle cx="26.5" cy="17.5" r="2.5" fill="#E6D3CC"/>
<circle cx="37" cy="21" r="2" fill="#E6D3CC"/>
<circle cx="44" cy="41" r="2" fill="#E6D3CC"/>
<circle cx="21" cy="40" r="2" fill="#E6D3CC"/>
<path d="M8.375 27.748C10.5628 41.5055 22.0974 52 36 52C40.9041 52 45.5128 50.6926 49.5215 48.3984C45.1421 53.0758 38.9131 56 32 56C18.7452 56 8 45.2548 8 32C8 30.549 8.12828 29.1281 8.375 27.748Z" fill="black" fill-opacity="0.2"/>
</svg>
