{
	"asset":{
		"generator":"Khronos glTF Blender I/O v5.0.21",
		"version":"2.0"
	},
	"extensionsUsed":[
		"KHR_materials_unlit",
		"EXT_texture_webp"
	],
	"scene":0,
	"scenes":[
		{
			"name":"Scene",
			"nodes":[
				0,
				1,
				2,
				3,
				4,
				5,
				6,
				7
			]
		}
	],
	"nodes":[
		{
			"mesh":0,
			"name":"Anan\u00e1s.001",
			"rotation":[
				0,
				0.3011079430580139,
				0,
				0.9535900950431824
			],
			"scale":[
				0.028469767421483994,
				0.028469771146774292,
				0.028469767421483994
			],
			"translation":[
				-0.02479836344718933,
				0.43769198656082153,
				-0.06866069883108139
			]
		},
		{
			"mesh":1,
			"name":"Anan\u00e1s.003",
			"rotation":[
				0,
				-0.9608817100524902,
				0,
				0.27695947885513306
			],
			"scale":[
				0.028469771146774292,
				0.028469771146774292,
				0.028469771146774292
			],
			"translation":[
				-0.06149805337190628,
				0.33939462900161743,
				0.05407179892063141
			]
		},
		{
			"mesh":2,
			"name":"Anan\u00e1s.005",
			"rotation":[
				0.015477543696761131,
				0.5885602831840515,
				0.005951407831162214,
				0.808283269405365
			],
			"scale":[
				0.028469771146774292,
				0.028469771146774292,
				0.028469771146774292
			],
			"translation":[
				0.01158116478472948,
				0.4067709743976593,
				0.07977569848299026
			]
		},
		{
			"mesh":3,
			"name":"Anan\u00e1s.006",
			"rotation":[
				0,
				0.9655296206474304,
				0,
				0.26029321551322937
			],
			"scale":[
				0.028469771146774292,
				0.028469771146774292,
				0.028469771146774292
			],
			"translation":[
				0.005307028070092201,
				0.5082347989082336,
				0.004325455985963345
			]
		},
		{
			"mesh":4,
			"name":"Anan\u00e1s.007",
			"rotation":[
				0,
				-0.8278144001960754,
				0,
				0.5610020756721497
			],
			"scale":[
				0.028469771146774292,
				0.028469771146774292,
				0.028469771146774292
			],
			"translation":[
				0.07577762752771378,
				0.4189734160900116,
				0.026869941502809525
			]
		},
		{
			"mesh":5,
			"name":"Anan\u00e1s.004",
			"rotation":[
				0,
				-0.8985874056816101,
				0,
				0.4387945234775543
			],
			"scale":[
				0.028469771146774292,
				0.028469771146774292,
				0.028469771146774292
			],
			"translation":[
				0.045684948563575745,
				0.4792645573616028,
				-0.0536983460187912
			]
		},
		{
			"mesh":6,
			"name":"Anan\u00e1s.002",
			"rotation":[
				0.0004783839685842395,
				0.3010949492454529,
				0.013288358226418495,
				0.9535014629364014
			],
			"scale":[
				0.02846977300941944,
				0.028469771146774292,
				0.02846977300941944
			],
			"translation":[
				-0.060974281281232834,
				0.3321980834007263,
				-0.013697518035769463
			]
		},
		{
			"mesh":7,
			"name":"Anan\u00e1s.008",
			"rotation":[
				0,
				0.3011079430580139,
				0,
				0.9535900950431824
			],
			"scale":[
				0.028469767421483994,
				0.028469771146774292,
				0.028469767421483994
			],
			"translation":[
				-0.02479836344718933,
				0.43769198656082153,
				-0.06866069883108139
			]
		}
	],
	"animations":[
		{
			"channels":[
				{
					"sampler":0,
					"target":{
						"node":0,
						"path":"translation"
					}
				},
				{
					"sampler":1,
					"target":{
						"node":0,
						"path":"rotation"
					}
				}
			],
			"name":"Anan\u00e1s.001Action",
			"samplers":[
				{
					"input":49,
					"interpolation":"LINEAR",
					"output":50
				},
				{
					"input":49,
					"interpolation":"LINEAR",
					"output":51
				}
			]
		},
		{
			"channels":[
				{
					"sampler":0,
					"target":{
						"node":1,
						"path":"translation"
					}
				},
				{
					"sampler":1,
					"target":{
						"node":1,
						"path":"rotation"
					}
				}
			],
			"name":"Anan\u00e1s.003Action",
			"samplers":[
				{
					"input":49,
					"interpolation":"LINEAR",
					"output":52
				},
				{
					"input":49,
					"interpolation":"LINEAR",
					"output":53
				}
			]
		},
		{
			"channels":[
				{
					"sampler":0,
					"target":{
						"node":2,
						"path":"translation"
					}
				},
				{
					"sampler":1,
					"target":{
						"node":2,
						"path":"rotation"
					}
				}
			],
			"name":"Anan\u00e1s.005Action",
			"samplers":[
				{
					"input":49,
					"interpolation":"LINEAR",
					"output":54
				},
				{
					"input":49,
					"interpolation":"LINEAR",
					"output":55
				}
			]
		},
		{
			"channels":[
				{
					"sampler":0,
					"target":{
						"node":3,
						"path":"translation"
					}
				},
				{
					"sampler":1,
					"target":{
						"node":3,
						"path":"rotation"
					}
				}
			],
			"name":"Anan\u00e1s.006Action",
			"samplers":[
				{
					"input":49,
					"interpolation":"LINEAR",
					"output":56
				},
				{
					"input":49,
					"interpolation":"LINEAR",
					"output":57
				}
			]
		},
		{
			"channels":[
				{
					"sampler":0,
					"target":{
						"node":4,
						"path":"translation"
					}
				},
				{
					"sampler":1,
					"target":{
						"node":4,
						"path":"rotation"
					}
				}
			],
			"name":"Anan\u00e1s.007Action",
			"samplers":[
				{
					"input":49,
					"interpolation":"LINEAR",
					"output":58
				},
				{
					"input":49,
					"interpolation":"LINEAR",
					"output":59
				}
			]
		},
		{
			"channels":[
				{
					"sampler":0,
					"target":{
						"node":5,
						"path":"translation"
					}
				},
				{
					"sampler":1,
					"target":{
						"node":5,
						"path":"rotation"
					}
				}
			],
			"name":"Anan\u00e1s.004Action",
			"samplers":[
				{
					"input":49,
					"interpolation":"LINEAR",
					"output":60
				},
				{
					"input":49,
					"interpolation":"LINEAR",
					"output":61
				}
			]
		},
		{
			"channels":[
				{
					"sampler":0,
					"target":{
						"node":6,
						"path":"translation"
					}
				},
				{
					"sampler":1,
					"target":{
						"node":6,
						"path":"rotation"
					}
				}
			],
			"name":"Anan\u00e1s.002Action",
			"samplers":[
				{
					"input":62,
					"interpolation":"LINEAR",
					"output":63
				},
				{
					"input":62,
					"interpolation":"LINEAR",
					"output":64
				}
			]
		},
		{
			"channels":[
				{
					"sampler":0,
					"target":{
						"node":7,
						"path":"translation"
					}
				},
				{
					"sampler":1,
					"target":{
						"node":7,
						"path":"rotation"
					}
				}
			],
			"name":"Anan\u00e1s.001Action.001",
			"samplers":[
				{
					"input":49,
					"interpolation":"LINEAR",
					"output":50
				},
				{
					"input":49,
					"interpolation":"LINEAR",
					"output":51
				}
			]
		}
	],
	"materials":[
		{
			"doubleSided":true,
			"extensions":{
				"KHR_materials_unlit":{}
			},
			"name":"Material.003",
			"pbrMetallicRoughness":{
				"baseColorTexture":{
					"index":0
				},
				"metallicFactor":0,
				"roughnessFactor":0.9
			}
		}
	],
	"meshes":[
		{
			"name":"Circle.009",
			"primitives":[
				{
					"attributes":{
						"POSITION":0,
						"NORMAL":1,
						"TEXCOORD_0":2,
						"TANGENT":3,
						"COLOR_0":4,
						"COLOR_1":5
					},
					"indices":6,
					"material":0
				}
			]
		},
		{
			"name":"Circle.011",
			"primitives":[
				{
					"attributes":{
						"POSITION":7,
						"NORMAL":8,
						"TEXCOORD_0":9,
						"TANGENT":10,
						"COLOR_0":11,
						"COLOR_1":12
					},
					"indices":6,
					"material":0
				}
			]
		},
		{
			"name":"Circle.013",
			"primitives":[
				{
					"attributes":{
						"POSITION":13,
						"NORMAL":14,
						"TEXCOORD_0":15,
						"TANGENT":16,
						"COLOR_0":17,
						"COLOR_1":18
					},
					"indices":6,
					"material":0
				}
			]
		},
		{
			"name":"Circle.014",
			"primitives":[
				{
					"attributes":{
						"POSITION":19,
						"NORMAL":20,
						"TEXCOORD_0":21,
						"TANGENT":22,
						"COLOR_0":23,
						"COLOR_1":24
					},
					"indices":6,
					"material":0
				}
			]
		},
		{
			"name":"Circle.015",
			"primitives":[
				{
					"attributes":{
						"POSITION":25,
						"NORMAL":26,
						"TEXCOORD_0":27,
						"TANGENT":28,
						"COLOR_0":29,
						"COLOR_1":30
					},
					"indices":6,
					"material":0
				}
			]
		},
		{
			"name":"Circle.016",
			"primitives":[
				{
					"attributes":{
						"POSITION":31,
						"NORMAL":32,
						"TEXCOORD_0":33,
						"TANGENT":34,
						"COLOR_0":35,
						"COLOR_1":36
					},
					"indices":6,
					"material":0
				}
			]
		},
		{
			"name":"Circle.001",
			"primitives":[
				{
					"attributes":{
						"POSITION":37,
						"NORMAL":38,
						"TEXCOORD_0":39,
						"TANGENT":40,
						"COLOR_0":41,
						"COLOR_1":42
					},
					"indices":6,
					"material":0
				}
			]
		},
		{
			"name":"Circle.007",
			"primitives":[
				{
					"attributes":{
						"POSITION":43,
						"NORMAL":44,
						"TEXCOORD_0":45,
						"TANGENT":46,
						"COLOR_0":47,
						"COLOR_1":48
					},
					"indices":6,
					"material":0
				}
			]
		}
	],
	"textures":[
		{
			"extensions":{
				"EXT_texture_webp":{
					"source":0
				}
			},
			"sampler":0,
			"source":1
		}
	],
	"images":[
		{
			"mimeType":"image/webp",
			"name":"Ananas TXT",
			"uri":"ananas%20TXT/Ananas%20TXT.webp"
		},
		{
			"mimeType":"image/png",
			"name":"Ananas TXT",
			"uri":"ananas%20TXT/Ananas%20TXT.png"
		}
	],
	"accessors":[
		{
			"bufferView":0,
			"componentType":5126,
			"count":278049,
			"max":[
				0.9988954663276672,
				0.09490581601858139,
				0.9991995096206665
			],
			"min":[
				-0.9988906383514404,
				-0.02821475639939308,
				-0.9952515959739685
			],
			"type":"VEC3"
		},
		{
			"bufferView":1,
			"componentType":5126,
			"count":278049,
			"type":"VEC3"
		},
		{
			"bufferView":2,
			"componentType":5126,
			"count":278049,
			"type":"VEC2"
		},
		{
			"bufferView":3,
			"componentType":5126,
			"count":278049,
			"type":"VEC4"
		},
		{
			"bufferView":4,
			"componentType":5121,
			"count":278049,
			"normalized":true,
			"type":"VEC4"
		},
		{
			"bufferView":5,
			"componentType":5123,
			"count":278049,
			"normalized":true,
			"type":"VEC4"
		},
		{
			"bufferView":6,
			"componentType":5125,
			"count":1572864,
			"type":"SCALAR"
		},
		{
			"bufferView":7,
			"componentType":5126,
			"count":278049,
			"max":[
				0.9988954663276672,
				0.09490581601858139,
				0.9991995096206665
			],
			"min":[
				-0.9988906383514404,
				-0.02821475639939308,
				-0.9952515959739685
			],
			"type":"VEC3"
		},
		{
			"bufferView":8,
			"componentType":5126,
			"count":278049,
			"type":"VEC3"
		},
		{
			"bufferView":9,
			"componentType":5126,
			"count":278049,
			"type":"VEC2"
		},
		{
			"bufferView":10,
			"componentType":5126,
			"count":278049,
			"type":"VEC4"
		},
		{
			"bufferView":11,
			"componentType":5121,
			"count":278049,
			"normalized":true,
			"type":"VEC4"
		},
		{
			"bufferView":12,
			"componentType":5123,
			"count":278049,
			"normalized":true,
			"type":"VEC4"
		},
		{
			"bufferView":13,
			"componentType":5126,
			"count":278049,
			"max":[
				0.9988954663276672,
				0.09490581601858139,
				0.9991995096206665
			],
			"min":[
				-0.9988906383514404,
				-0.02821475639939308,
				-0.9952515959739685
			],
			"type":"VEC3"
		},
		{
			"bufferView":14,
			"componentType":5126,
			"count":278049,
			"type":"VEC3"
		},
		{
			"bufferView":15,
			"componentType":5126,
			"count":278049,
			"type":"VEC2"
		},
		{
			"bufferView":16,
			"componentType":5126,
			"count":278049,
			"type":"VEC4"
		},
		{
			"bufferView":17,
			"componentType":5121,
			"count":278049,
			"normalized":true,
			"type":"VEC4"
		},
		{
			"bufferView":18,
			"componentType":5123,
			"count":278049,
			"normalized":true,
			"type":"VEC4"
		},
		{
			"bufferView":19,
			"componentType":5126,
			"count":278049,
			"max":[
				0.9988954663276672,
				0.09490581601858139,
				0.9991995096206665
			],
			"min":[
				-0.9988906383514404,
				-0.02821475639939308,
				-0.9952515959739685
			],
			"type":"VEC3"
		},
		{
			"bufferView":20,
			"componentType":5126,
			"count":278049,
			"type":"VEC3"
		},
		{
			"bufferView":21,
			"componentType":5126,
			"count":278049,
			"type":"VEC2"
		},
		{
			"bufferView":22,
			"componentType":5126,
			"count":278049,
			"type":"VEC4"
		},
		{
			"bufferView":23,
			"componentType":5121,
			"count":278049,
			"normalized":true,
			"type":"VEC4"
		},
		{
			"bufferView":24,
			"componentType":5123,
			"count":278049,
			"normalized":true,
			"type":"VEC4"
		},
		{
			"bufferView":25,
			"componentType":5126,
			"count":278049,
			"max":[
				0.9988954663276672,
				0.09490581601858139,
				0.9991995096206665
			],
			"min":[
				-0.9988906383514404,
				-0.02821475639939308,
				-0.9952515959739685
			],
			"type":"VEC3"
		},
		{
			"bufferView":26,
			"componentType":5126,
			"count":278049,
			"type":"VEC3"
		},
		{
			"bufferView":27,
			"componentType":5126,
			"count":278049,
			"type":"VEC2"
		},
		{
			"bufferView":28,
			"componentType":5126,
			"count":278049,
			"type":"VEC4"
		},
		{
			"bufferView":29,
			"componentType":5121,
			"count":278049,
			"normalized":true,
			"type":"VEC4"
		},
		{
			"bufferView":30,
			"componentType":5123,
			"count":278049,
			"normalized":true,
			"type":"VEC4"
		},
		{
			"bufferView":31,
			"componentType":5126,
			"count":278049,
			"max":[
				0.9988954663276672,
				0.09490581601858139,
				0.9991995096206665
			],
			"min":[
				-0.9988906383514404,
				-0.02821475639939308,
				-0.9952515959739685
			],
			"type":"VEC3"
		},
		{
			"bufferView":32,
			"componentType":5126,
			"count":278049,
			"type":"VEC3"
		},
		{
			"bufferView":33,
			"componentType":5126,
			"count":278049,
			"type":"VEC2"
		},
		{
			"bufferView":34,
			"componentType":5126,
			"count":278049,
			"type":"VEC4"
		},
		{
			"bufferView":35,
			"componentType":5121,
			"count":278049,
			"normalized":true,
			"type":"VEC4"
		},
		{
			"bufferView":36,
			"componentType":5123,
			"count":278049,
			"normalized":true,
			"type":"VEC4"
		},
		{
			"bufferView":37,
			"componentType":5126,
			"count":278049,
			"max":[
				0.9988954663276672,
				0.09490581601858139,
				0.9991995096206665
			],
			"min":[
				-0.9988906383514404,
				-0.02821475639939308,
				-0.9952515959739685
			],
			"type":"VEC3"
		},
		{
			"bufferView":38,
			"componentType":5126,
			"count":278049,
			"type":"VEC3"
		},
		{
			"bufferView":39,
			"componentType":5126,
			"count":278049,
			"type":"VEC2"
		},
		{
			"bufferView":40,
			"componentType":5126,
			"count":278049,
			"type":"VEC4"
		},
		{
			"bufferView":41,
			"componentType":5121,
			"count":278049,
			"normalized":true,
			"type":"VEC4"
		},
		{
			"bufferView":42,
			"componentType":5123,
			"count":278049,
			"normalized":true,
			"type":"VEC4"
		},
		{
			"bufferView":43,
			"componentType":5126,
			"count":278049,
			"max":[
				0.9988954663276672,
				0.09490581601858139,
				0.9991995096206665
			],
			"min":[
				-0.9988906383514404,
				-0.02821475639939308,
				-0.9952515959739685
			],
			"type":"VEC3"
		},
		{
			"bufferView":44,
			"componentType":5126,
			"count":278049,
			"type":"VEC3"
		},
		{
			"bufferView":45,
			"componentType":5126,
			"count":278049,
			"type":"VEC2"
		},
		{
			"bufferView":46,
			"componentType":5126,
			"count":278049,
			"type":"VEC4"
		},
		{
			"bufferView":47,
			"componentType":5121,
			"count":278049,
			"normalized":true,
			"type":"VEC4"
		},
		{
			"bufferView":48,
			"componentType":5123,
			"count":278049,
			"normalized":true,
			"type":"VEC4"
		},
		{
			"bufferView":49,
			"componentType":5126,
			"count":30,
			"max":[
				1.25
			],
			"min":[
				0.041666666666666664
			],
			"type":"SCALAR"
		},
		{
			"bufferView":50,
			"componentType":5126,
			"count":30,
			"type":"VEC3"
		},
		{
			"bufferView":51,
			"componentType":5126,
			"count":30,
			"type":"VEC4"
		},
		{
			"bufferView":52,
			"componentType":5126,
			"count":30,
			"type":"VEC3"
		},
		{
			"bufferView":53,
			"componentType":5126,
			"count":30,
			"type":"VEC4"
		},
		{
			"bufferView":54,
			"componentType":5126,
			"count":30,
			"type":"VEC3"
		},
		{
			"bufferView":55,
			"componentType":5126,
			"count":30,
			"type":"VEC4"
		},
		{
			"bufferView":56,
			"componentType":5126,
			"count":30,
			"type":"VEC3"
		},
		{
			"bufferView":57,
			"componentType":5126,
			"count":30,
			"type":"VEC4"
		},
		{
			"bufferView":58,
			"componentType":5126,
			"count":30,
			"type":"VEC3"
		},
		{
			"bufferView":59,
			"componentType":5126,
			"count":30,
			"type":"VEC4"
		},
		{
			"bufferView":60,
			"componentType":5126,
			"count":30,
			"type":"VEC3"
		},
		{
			"bufferView":61,
			"componentType":5126,
			"count":30,
			"type":"VEC4"
		},
		{
			"bufferView":62,
			"componentType":5126,
			"count":32,
			"max":[
				1.3333333333333333
			],
			"min":[
				0.041666666666666664
			],
			"type":"SCALAR"
		},
		{
			"bufferView":63,
			"componentType":5126,
			"count":32,
			"type":"VEC3"
		},
		{
			"bufferView":64,
			"componentType":5126,
			"count":32,
			"type":"VEC4"
		}
	],
	"bufferViews":[
		{
			"buffer":0,
			"byteLength":3336588,
			"byteOffset":0,
			"target":34962
		},
		{
			"buffer":0,
			"byteLength":3336588,
			"byteOffset":3336588,
			"target":34962
		},
		{
			"buffer":0,
			"byteLength":2224392,
			"byteOffset":6673176,
			"target":34962
		},
		{
			"buffer":0,
			"byteLength":4448784,
			"byteOffset":8897568,
			"target":34962
		},
		{
			"buffer":0,
			"byteLength":1112196,
			"byteOffset":13346352,
			"target":34962
		},
		{
			"buffer":0,
			"byteLength":2224392,
			"byteOffset":14458548,
			"target":34962
		},
		{
			"buffer":0,
			"byteLength":6291456,
			"byteOffset":16682940,
			"target":34963
		},
		{
			"buffer":0,
			"byteLength":3336588,
			"byteOffset":22974396,
			"target":34962
		},
		{
			"buffer":0,
			"byteLength":3336588,
			"byteOffset":26310984,
			"target":34962
		},
		{
			"buffer":0,
			"byteLength":2224392,
			"byteOffset":29647572,
			"target":34962
		},
		{
			"buffer":0,
			"byteLength":4448784,
			"byteOffset":31871964,
			"target":34962
		},
		{
			"buffer":0,
			"byteLength":1112196,
			"byteOffset":36320748,
			"target":34962
		},
		{
			"buffer":0,
			"byteLength":2224392,
			"byteOffset":37432944,
			"target":34962
		},
		{
			"buffer":0,
			"byteLength":3336588,
			"byteOffset":39657336,
			"target":34962
		},
		{
			"buffer":0,
			"byteLength":3336588,
			"byteOffset":42993924,
			"target":34962
		},
		{
			"buffer":0,
			"byteLength":2224392,
			"byteOffset":46330512,
			"target":34962
		},
		{
			"buffer":0,
			"byteLength":4448784,
			"byteOffset":48554904,
			"target":34962
		},
		{
			"buffer":0,
			"byteLength":1112196,
			"byteOffset":53003688,
			"target":34962
		},
		{
			"buffer":0,
			"byteLength":2224392,
			"byteOffset":54115884,
			"target":34962
		},
		{
			"buffer":0,
			"byteLength":3336588,
			"byteOffset":56340276,
			"target":34962
		},
		{
			"buffer":0,
			"byteLength":3336588,
			"byteOffset":59676864,
			"target":34962
		},
		{
			"buffer":0,
			"byteLength":2224392,
			"byteOffset":63013452,
			"target":34962
		},
		{
			"buffer":0,
			"byteLength":4448784,
			"byteOffset":65237844,
			"target":34962
		},
		{
			"buffer":0,
			"byteLength":1112196,
			"byteOffset":69686628,
			"target":34962
		},
		{
			"buffer":0,
			"byteLength":2224392,
			"byteOffset":70798824,
			"target":34962
		},
		{
			"buffer":0,
			"byteLength":3336588,
			"byteOffset":73023216,
			"target":34962
		},
		{
			"buffer":0,
			"byteLength":3336588,
			"byteOffset":76359804,
			"target":34962
		},
		{
			"buffer":0,
			"byteLength":2224392,
			"byteOffset":79696392,
			"target":34962
		},
		{
			"buffer":0,
			"byteLength":4448784,
			"byteOffset":81920784,
			"target":34962
		},
		{
			"buffer":0,
			"byteLength":1112196,
			"byteOffset":86369568,
			"target":34962
		},
		{
			"buffer":0,
			"byteLength":2224392,
			"byteOffset":87481764,
			"target":34962
		},
		{
			"buffer":0,
			"byteLength":3336588,
			"byteOffset":89706156,
			"target":34962
		},
		{
			"buffer":0,
			"byteLength":3336588,
			"byteOffset":93042744,
			"target":34962
		},
		{
			"buffer":0,
			"byteLength":2224392,
			"byteOffset":96379332,
			"target":34962
		},
		{
			"buffer":0,
			"byteLength":4448784,
			"byteOffset":98603724,
			"target":34962
		},
		{
			"buffer":0,
			"byteLength":1112196,
			"byteOffset":103052508,
			"target":34962
		},
		{
			"buffer":0,
			"byteLength":2224392,
			"byteOffset":104164704,
			"target":34962
		},
		{
			"buffer":0,
			"byteLength":3336588,
			"byteOffset":106389096,
			"target":34962
		},
		{
			"buffer":0,
			"byteLength":3336588,
			"byteOffset":109725684,
			"target":34962
		},
		{
			"buffer":0,
			"byteLength":2224392,
			"byteOffset":113062272,
			"target":34962
		},
		{
			"buffer":0,
			"byteLength":4448784,
			"byteOffset":115286664,
			"target":34962
		},
		{
			"buffer":0,
			"byteLength":1112196,
			"byteOffset":119735448,
			"target":34962
		},
		{
			"buffer":0,
			"byteLength":2224392,
			"byteOffset":120847644,
			"target":34962
		},
		{
			"buffer":0,
			"byteLength":3336588,
			"byteOffset":123072036,
			"target":34962
		},
		{
			"buffer":0,
			"byteLength":3336588,
			"byteOffset":126408624,
			"target":34962
		},
		{
			"buffer":0,
			"byteLength":2224392,
			"byteOffset":129745212,
			"target":34962
		},
		{
			"buffer":0,
			"byteLength":4448784,
			"byteOffset":131969604,
			"target":34962
		},
		{
			"buffer":0,
			"byteLength":1112196,
			"byteOffset":136418388,
			"target":34962
		},
		{
			"buffer":0,
			"byteLength":2224392,
			"byteOffset":137530584,
			"target":34962
		},
		{
			"buffer":0,
			"byteLength":120,
			"byteOffset":139754976
		},
		{
			"buffer":0,
			"byteLength":360,
			"byteOffset":139755096
		},
		{
			"buffer":0,
			"byteLength":480,
			"byteOffset":139755456
		},
		{
			"buffer":0,
			"byteLength":360,
			"byteOffset":139755936
		},
		{
			"buffer":0,
			"byteLength":480,
			"byteOffset":139756296
		},
		{
			"buffer":0,
			"byteLength":360,
			"byteOffset":139756776
		},
		{
			"buffer":0,
			"byteLength":480,
			"byteOffset":139757136
		},
		{
			"buffer":0,
			"byteLength":360,
			"byteOffset":139757616
		},
		{
			"buffer":0,
			"byteLength":480,
			"byteOffset":139757976
		},
		{
			"buffer":0,
			"byteLength":360,
			"byteOffset":139758456
		},
		{
			"buffer":0,
			"byteLength":480,
			"byteOffset":139758816
		},
		{
			"buffer":0,
			"byteLength":360,
			"byteOffset":139759296
		},
		{
			"buffer":0,
			"byteLength":480,
			"byteOffset":139759656
		},
		{
			"buffer":0,
			"byteLength":128,
			"byteOffset":139760136
		},
		{
			"buffer":0,
			"byteLength":384,
			"byteOffset":139760264
		},
		{
			"buffer":0,
			"byteLength":512,
			"byteOffset":139760648
		}
	],
	"samplers":[
		{
			"magFilter":9729,
			"minFilter":9987
		}
	],
	"buffers":[
		{
			"byteLength":139761160,
			"uri":"ananas.bin"
		}
	]
}
