{
	"asset":{
		"generator":"Khronos glTF Blender I/O v5.0.21",
		"version":"2.0"
	},
	"extensionsUsed":[
		"EXT_texture_webp"
	],
	"scene":0,
	"scenes":[
		{
			"name":"Scene",
			"nodes":[
				0,
				1,
				2
			]
		}
	],
	"nodes":[
		{
			"mesh":0,
			"name":"Spodok",
			"rotation":[
				0.030357778072357178,
				0.7064548134803772,
				-0.03035777620971203,
				0.706454873085022
			],
			"scale":[
				1.118706464767456,
				1.118706464767456,
				1.118706464767456
			],
			"translation":[
				-1.181071400642395,
				-0.02087237685918808,
				0.002954147756099701
			]
		},
		{
			"mesh":1,
			"name":"Stred",
			"rotation":[
				-0.24230165779590607,
				0.664296567440033,
				0.24230167269706726,
				0.664296567440033
			],
			"scale":[
				1.1607067584991455,
				1.1607067584991455,
				1.1607067584991455
			],
			"translation":[
				-1.301731824874878,
				-0.01054974552243948,
				0.0029352009296417236
			]
		},
		{
			"mesh":2,
			"name":"Vrch",
			"rotation":[
				-0.6642966270446777,
				-0.242301806807518,
				-0.6642965078353882,
				0.24230144917964935
			],
			"scale":[
				1.1658589839935303,
				1.1658589839935303,
				1.1658589839935303
			],
			"translation":[
				-1.3151233196258545,
				0.003933512605726719,
				0.002973899245262146
			]
		}
	],
	"animations":[
		{
			"channels":[
				{
					"sampler":0,
					"target":{
						"node":0,
						"path":"translation"
					}
				},
				{
					"sampler":1,
					"target":{
						"node":0,
						"path":"rotation"
					}
				},
				{
					"sampler":2,
					"target":{
						"node":0,
						"path":"scale"
					}
				}
			],
			"name":"SpodokAction",
			"samplers":[
				{
					"input":17,
					"interpolation":"LINEAR",
					"output":18
				},
				{
					"input":17,
					"interpolation":"LINEAR",
					"output":19
				},
				{
					"input":20,
					"interpolation":"STEP",
					"output":21
				}
			]
		},
		{
			"channels":[
				{
					"sampler":0,
					"target":{
						"node":1,
						"path":"translation"
					}
				},
				{
					"sampler":1,
					"target":{
						"node":1,
						"path":"rotation"
					}
				},
				{
					"sampler":2,
					"target":{
						"node":1,
						"path":"scale"
					}
				}
			],
			"name":"StredAction",
			"samplers":[
				{
					"input":17,
					"interpolation":"LINEAR",
					"output":22
				},
				{
					"input":17,
					"interpolation":"LINEAR",
					"output":23
				},
				{
					"input":20,
					"interpolation":"STEP",
					"output":24
				}
			]
		},
		{
			"channels":[
				{
					"sampler":0,
					"target":{
						"node":2,
						"path":"translation"
					}
				},
				{
					"sampler":1,
					"target":{
						"node":2,
						"path":"rotation"
					}
				},
				{
					"sampler":2,
					"target":{
						"node":2,
						"path":"scale"
					}
				}
			],
			"name":"VrchAction",
			"samplers":[
				{
					"input":17,
					"interpolation":"LINEAR",
					"output":25
				},
				{
					"input":17,
					"interpolation":"LINEAR",
					"output":26
				},
				{
					"input":20,
					"interpolation":"STEP",
					"output":27
				}
			]
		}
	],
	"materials":[
		{
			"doubleSided":true,
			"name":"Material",
			"pbrMetallicRoughness":{
				"baseColorFactor":[
					0.800000011920929,
					0.800000011920929,
					0.800000011920929,
					1
				],
				"metallicFactor":0,
				"roughnessFactor":0.5
			}
		},
		{
			"doubleSided":true,
			"name":"Material.011",
			"pbrMetallicRoughness":{
				"baseColorTexture":{
					"index":0
				},
				"metallicFactor":0,
				"roughnessFactor":0.5
			}
		}
	],
	"meshes":[
		{
			"name":"Plane.004",
			"primitives":[
				{
					"attributes":{
						"POSITION":0,
						"NORMAL":1,
						"TEXCOORD_0":2,
						"TANGENT":3
					},
					"indices":4,
					"material":0
				}
			]
		},
		{
			"name":"Plane.005",
			"primitives":[
				{
					"attributes":{
						"POSITION":5,
						"NORMAL":6,
						"TEXCOORD_0":7,
						"TANGENT":8
					},
					"indices":9
				}
			]
		},
		{
			"name":"Plane.006",
			"primitives":[
				{
					"attributes":{
						"POSITION":10,
						"NORMAL":11,
						"TEXCOORD_0":12,
						"TANGENT":13,
						"COLOR_0":14,
						"COLOR_1":15
					},
					"indices":16,
					"material":1
				}
			]
		}
	],
	"textures":[
		{
			"extensions":{
				"EXT_texture_webp":{
					"source":0
				}
			},
			"sampler":0,
			"source":1
		}
	],
	"images":[
		{
			"mimeType":"image/webp",
			"name":"ppp",
			"uri":"krabica%20TXT/ppp.webp"
		},
		{
			"mimeType":"image/png",
			"name":"ppp",
			"uri":"krabica%20TXT/ppp.png"
		}
	],
	"accessors":[
		{
			"bufferView":0,
			"componentType":5126,
			"count":365,
			"max":[
				0.14510321617126465,
				0.017130611464381218,
				0.14551135897636414
			],
			"min":[
				-0.14491209387779236,
				-0.0001365386415272951,
				-0.10825203359127045
			],
			"type":"VEC3"
		},
		{
			"bufferView":1,
			"componentType":5126,
			"count":365,
			"type":"VEC3"
		},
		{
			"bufferView":2,
			"componentType":5126,
			"count":365,
			"type":"VEC2"
		},
		{
			"bufferView":3,
			"componentType":5126,
			"count":365,
			"type":"VEC4"
		},
		{
			"bufferView":4,
			"componentType":5123,
			"count":1176,
			"type":"SCALAR"
		},
		{
			"bufferView":5,
			"componentType":5126,
			"count":70,
			"max":[
				0.14508627355098724,
				0.017182644456624985,
				0.0032510459423065186
			],
			"min":[
				-0.14492903649806976,
				-7.723469752818346e-05,
				-9.5367431640625e-07
			],
			"type":"VEC3"
		},
		{
			"bufferView":6,
			"componentType":5126,
			"count":70,
			"type":"VEC3"
		},
		{
			"bufferView":7,
			"componentType":5126,
			"count":70,
			"type":"VEC2"
		},
		{
			"bufferView":8,
			"componentType":5126,
			"count":70,
			"type":"VEC4"
		},
		{
			"bufferView":9,
			"componentType":5123,
			"count":168,
			"type":"SCALAR"
		},
		{
			"bufferView":10,
			"componentType":5126,
			"count":13924,
			"max":[
				0.14508627355098724,
				0.017256885766983032,
				0.25385403633117676
			],
			"min":[
				-0.14492903649806976,
				-1.0264338925480843e-05,
				9.065866470336914e-05
			],
			"type":"VEC3"
		},
		{
			"bufferView":11,
			"componentType":5126,
			"count":13924,
			"type":"VEC3"
		},
		{
			"bufferView":12,
			"componentType":5126,
			"count":13924,
			"type":"VEC2"
		},
		{
			"bufferView":13,
			"componentType":5126,
			"count":13924,
			"type":"VEC4"
		},
		{
			"bufferView":14,
			"componentType":5121,
			"count":13924,
			"normalized":true,
			"type":"VEC4"
		},
		{
			"bufferView":15,
			"componentType":5123,
			"count":13924,
			"normalized":true,
			"type":"VEC4"
		},
		{
			"bufferView":16,
			"componentType":5123,
			"count":75264,
			"type":"SCALAR"
		},
		{
			"bufferView":17,
			"componentType":5126,
			"count":58,
			"max":[
				2.4166666666666665
			],
			"min":[
				0.041666666666666664
			],
			"type":"SCALAR"
		},
		{
			"bufferView":18,
			"componentType":5126,
			"count":58,
			"type":"VEC3"
		},
		{
			"bufferView":19,
			"componentType":5126,
			"count":58,
			"type":"VEC4"
		},
		{
			"bufferView":20,
			"componentType":5126,
			"count":2,
			"max":[
				2.4166666666666665
			],
			"min":[
				0.041666666666666664
			],
			"type":"SCALAR"
		},
		{
			"bufferView":21,
			"componentType":5126,
			"count":2,
			"type":"VEC3"
		},
		{
			"bufferView":22,
			"componentType":5126,
			"count":58,
			"type":"VEC3"
		},
		{
			"bufferView":23,
			"componentType":5126,
			"count":58,
			"type":"VEC4"
		},
		{
			"bufferView":24,
			"componentType":5126,
			"count":2,
			"type":"VEC3"
		},
		{
			"bufferView":25,
			"componentType":5126,
			"count":58,
			"type":"VEC3"
		},
		{
			"bufferView":26,
			"componentType":5126,
			"count":58,
			"type":"VEC4"
		},
		{
			"bufferView":27,
			"componentType":5126,
			"count":2,
			"type":"VEC3"
		}
	],
	"bufferViews":[
		{
			"buffer":0,
			"byteLength":4380,
			"byteOffset":0,
			"target":34962
		},
		{
			"buffer":0,
			"byteLength":4380,
			"byteOffset":4380,
			"target":34962
		},
		{
			"buffer":0,
			"byteLength":2920,
			"byteOffset":8760,
			"target":34962
		},
		{
			"buffer":0,
			"byteLength":5840,
			"byteOffset":11680,
			"target":34962
		},
		{
			"buffer":0,
			"byteLength":2352,
			"byteOffset":17520,
			"target":34963
		},
		{
			"buffer":0,
			"byteLength":840,
			"byteOffset":19872,
			"target":34962
		},
		{
			"buffer":0,
			"byteLength":840,
			"byteOffset":20712,
			"target":34962
		},
		{
			"buffer":0,
			"byteLength":560,
			"byteOffset":21552,
			"target":34962
		},
		{
			"buffer":0,
			"byteLength":1120,
			"byteOffset":22112,
			"target":34962
		},
		{
			"buffer":0,
			"byteLength":336,
			"byteOffset":23232,
			"target":34963
		},
		{
			"buffer":0,
			"byteLength":167088,
			"byteOffset":23568,
			"target":34962
		},
		{
			"buffer":0,
			"byteLength":167088,
			"byteOffset":190656,
			"target":34962
		},
		{
			"buffer":0,
			"byteLength":111392,
			"byteOffset":357744,
			"target":34962
		},
		{
			"buffer":0,
			"byteLength":222784,
			"byteOffset":469136,
			"target":34962
		},
		{
			"buffer":0,
			"byteLength":55696,
			"byteOffset":691920,
			"target":34962
		},
		{
			"buffer":0,
			"byteLength":111392,
			"byteOffset":747616,
			"target":34962
		},
		{
			"buffer":0,
			"byteLength":150528,
			"byteOffset":859008,
			"target":34963
		},
		{
			"buffer":0,
			"byteLength":232,
			"byteOffset":1009536
		},
		{
			"buffer":0,
			"byteLength":696,
			"byteOffset":1009768
		},
		{
			"buffer":0,
			"byteLength":928,
			"byteOffset":1010464
		},
		{
			"buffer":0,
			"byteLength":8,
			"byteOffset":1011392
		},
		{
			"buffer":0,
			"byteLength":24,
			"byteOffset":1011400
		},
		{
			"buffer":0,
			"byteLength":696,
			"byteOffset":1011424
		},
		{
			"buffer":0,
			"byteLength":928,
			"byteOffset":1012120
		},
		{
			"buffer":0,
			"byteLength":24,
			"byteOffset":1013048
		},
		{
			"buffer":0,
			"byteLength":696,
			"byteOffset":1013072
		},
		{
			"buffer":0,
			"byteLength":928,
			"byteOffset":1013768
		},
		{
			"buffer":0,
			"byteLength":24,
			"byteOffset":1014696
		}
	],
	"samplers":[
		{
			"magFilter":9729,
			"minFilter":9987
		}
	],
	"buffers":[
		{
			"byteLength":1014720,
			"uri":"krabica.bin"
		}
	]
}
