{
	"asset":{
		"generator":"Khronos glTF Blender I/O v5.0.21",
		"version":"2.0"
	},
	"extensionsUsed":[
		"KHR_materials_unlit",
		"EXT_texture_webp"
	],
	"scene":0,
	"scenes":[
		{
			"name":"Scene",
			"nodes":[
				0
			]
		}
	],
	"nodes":[
		{
			"mesh":0,
			"name":"Circle"
		}
	],
	"animations":[
		{
			"channels":[
				{
					"sampler":0,
					"target":{
						"node":0,
						"path":"translation"
					}
				},
				{
					"sampler":1,
					"target":{
						"node":0,
						"path":"rotation"
					}
				},
				{
					"sampler":2,
					"target":{
						"node":0,
						"path":"scale"
					}
				}
			],
			"name":"CircleAction",
			"samplers":[
				{
					"input":5,
					"interpolation":"LINEAR",
					"output":6
				},
				{
					"input":7,
					"interpolation":"STEP",
					"output":8
				},
				{
					"input":7,
					"interpolation":"STEP",
					"output":9
				}
			]
		}
	],
	"materials":[
		{
			"doubleSided":true,
			"extensions":{
				"KHR_materials_unlit":{}
			},
			"name":"Doska",
			"pbrMetallicRoughness":{
				"baseColorTexture":{
					"index":0
				},
				"metallicFactor":0,
				"roughnessFactor":0.9
			}
		}
	],
	"meshes":[
		{
			"name":"Circle.001",
			"primitives":[
				{
					"attributes":{
						"POSITION":0,
						"NORMAL":1,
						"TEXCOORD_0":2,
						"TANGENT":3
					},
					"indices":4,
					"material":0
				}
			]
		}
	],
	"textures":[
		{
			"extensions":{
				"EXT_texture_webp":{
					"source":0
				}
			},
			"sampler":0,
			"source":1
		}
	],
	"images":[
		{
			"mimeType":"image/webp",
			"name":"Deska P\u00ed\u010do",
			"uri":"Plating%20TXT/Deska%20P%C3%AD%C4%8Do.webp"
		},
		{
			"mimeType":"image/png",
			"name":"Deska P\u00ed\u010do",
			"uri":"Plating%20TXT/Deska%20P%C3%AD%C4%8Do.png"
		}
	],
	"accessors":[
		{
			"bufferView":0,
			"componentType":5126,
			"count":4292,
			"max":[
				0.20000000298023224,
				0.014999999664723873,
				0.20000000298023224
			],
			"min":[
				-0.20000000298023224,
				0,
				-0.20000000298023224
			],
			"type":"VEC3"
		},
		{
			"bufferView":1,
			"componentType":5126,
			"count":4292,
			"type":"VEC3"
		},
		{
			"bufferView":2,
			"componentType":5126,
			"count":4292,
			"type":"VEC2"
		},
		{
			"bufferView":3,
			"componentType":5126,
			"count":4292,
			"type":"VEC4"
		},
		{
			"bufferView":4,
			"componentType":5123,
			"count":5364,
			"type":"SCALAR"
		},
		{
			"bufferView":5,
			"componentType":5126,
			"count":101,
			"max":[
				4.166666666666667
			],
			"min":[
				0
			],
			"type":"SCALAR"
		},
		{
			"bufferView":6,
			"componentType":5126,
			"count":101,
			"type":"VEC3"
		},
		{
			"bufferView":7,
			"componentType":5126,
			"count":2,
			"max":[
				4.166666666666667
			],
			"min":[
				0
			],
			"type":"SCALAR"
		},
		{
			"bufferView":8,
			"componentType":5126,
			"count":2,
			"type":"VEC4"
		},
		{
			"bufferView":9,
			"componentType":5126,
			"count":2,
			"type":"VEC3"
		}
	],
	"bufferViews":[
		{
			"buffer":0,
			"byteLength":51504,
			"byteOffset":0,
			"target":34962
		},
		{
			"buffer":0,
			"byteLength":51504,
			"byteOffset":51504,
			"target":34962
		},
		{
			"buffer":0,
			"byteLength":34336,
			"byteOffset":103008,
			"target":34962
		},
		{
			"buffer":0,
			"byteLength":68672,
			"byteOffset":137344,
			"target":34962
		},
		{
			"buffer":0,
			"byteLength":10728,
			"byteOffset":206016,
			"target":34963
		},
		{
			"buffer":0,
			"byteLength":404,
			"byteOffset":216744
		},
		{
			"buffer":0,
			"byteLength":1212,
			"byteOffset":217148
		},
		{
			"buffer":0,
			"byteLength":8,
			"byteOffset":218360
		},
		{
			"buffer":0,
			"byteLength":32,
			"byteOffset":218368
		},
		{
			"buffer":0,
			"byteLength":24,
			"byteOffset":218400
		}
	],
	"samplers":[
		{
			"magFilter":9729,
			"minFilter":9987
		}
	],
	"buffers":[
		{
			"byteLength":218424,
			"uri":"plating.bin"
		}
	]
}
