<svg width="318" height="318" viewBox="0 0 318 318" fill="none" xmlns="http://www.w3.org/2000/svg">
<path d="M159 271C223.065 271 275 219.065 275 155C275 121.702 260.97 91.6815 238.5 70.5262C217.737 50.9784 189.767 39 159 39C94.935 39 43 90.935 43 155C43 219.065 94.935 271 159 271Z" fill="#CC9B3D"/>
<circle cx="159" cy="155" r="104" fill="#E4B342"/>
<g clip-path="url(#clip0_73_242)">
<path d="M118.838 132.986C117.703 135.752 115.895 142.279 115.753 142.624C115.614 142.965 111.359 145.53 104.692 142.929L104.373 142.801C97.524 139.991 96.255 135.028 96.3968 134.683C96.5386 134.337 99.8359 128.421 100.97 125.656C103.126 127.186 107.635 129.198 109.621 130.012L110.479 130.357C112.73 131.24 116.555 132.615 118.838 132.986Z" fill="#CE8E52"/>
<path d="M118.838 132.986C118.603 133.557 118.341 134.289 118.07 135.094L118.04 135.082C110.681 133.354 103.193 128.993 100.359 127.022C100.597 126.518 100.807 126.054 100.97 125.655C103.126 127.186 107.635 129.198 109.621 130.012L110.479 130.357C112.73 131.24 116.555 132.615 118.838 132.986Z" fill="black" fill-opacity="0.2"/>
<path d="M93.951 113.084C99.0564 100.64 112.838 103.468 119.406 106.162L109.479 130.358C100.837 126.813 97.2093 123.843 96.3615 122.957C92.5044 119.759 93.1473 115.042 93.951 113.084Z" fill="#C26B3F"/>
<path d="M132.664 128.967C137.77 116.523 125.973 108.857 119.406 106.162L109.479 130.358C118.12 133.903 122.788 134.338 124.014 134.302C129.005 134.735 131.861 130.926 132.664 128.967Z" fill="#C26B3F"/>
</g>
<path d="M154 106C153.6 105.2 154.166 103.333 154.5 102.5L159.5 108C158.7 110 160.167 110.833 161 111C163.4 111 163.333 111.667 163 112C161.8 113.2 160.167 112.833 159.5 112.5C157.1 110.9 154.833 107.5 154 106Z" fill="#405325"/>
<path d="M154.5 103.5C159.154 109.222 163.5 111.5 165 112L166 111L156 100C154.4 101.6 154.167 103.091 154.5 103.5Z" fill="#4A6427"/>
<path d="M165.5 111L168 114L160 121L157 127C156.6 126.6 156.833 125.167 157 124.5C157 124.5 157.739 121.092 158.5 119C160.1 114.6 163.833 111.833 165.5 111Z" fill="#405325"/>
<path d="M180.5 88.5C180.1 86.5 176.667 83.3332 175 81.9999C174.847 81.8779 175 82.5 174.5 81.9999L177 87.5C179 87.9 179.5 89 179.5 89.5C179.5 91.1 179.833 91.5 180 91.5C180.4 91.1 180.5 89.3333 180.5 88.5Z" fill="#405325"/>
<path d="M175 81.9999C174.6 82.7999 178.833 90.6665 181 94.4999L181 96C181 96 171.5 87.5 171 86.4998C170.5 85.4997 170.297 84.4371 171 83.4999C172.2 81.8999 174 81.5 175 81.9999Z" fill="#4A6427"/>
<path d="M176.62 90.3655C183.487 98.2994 185.208 108.061 180.462 112.169C175.717 116.276 166.303 113.175 159.435 105.241C152.567 97.307 150.847 87.5453 155.592 83.4376C160.338 79.3299 169.752 82.4316 176.62 90.3655Z" fill="#E7BE01"/>
<path d="M170.5 117L158.5 104L177 91L181 95.5L187 117.5L170.5 117Z" fill="#E7BE01"/>
<path d="M188.913 124.039C192.413 122.372 197.213 118.439 188.413 116.039C185.338 113.91 179.102 110.866 175 110.192C170.898 109.519 168 115.95 168 115.95C168.794 116.087 169.603 116.432 170.413 117.039L182.913 125.039C183.413 125.372 185.313 125.639 188.913 124.039Z" fill="#B99801"/>
<path d="M180.5 95C180.66 99.8839 179.923 106.32 183.111 114.508C184.535 118.163 187.104 126.775 190.611 124.508C193.891 122.388 195.945 118.425 192.611 113.508C189.678 109.182 184.618 100.408 183.387 95.6927L180.5 95Z" fill="#B99801"/>
<path d="M170 113C174.765 110.879 184.167 115.5 188.5 118.5C197.3 120.9 192.5 124.834 189 126.5C185.4 128.1 183.5 127.833 183 127.5L170.5 119.5C165.7 115.9 160.932 121.526 159 125C157.953 126.883 159.689 127.707 161 128C162.234 128.276 162.833 126.833 163 126C163.5 127 162.958 128.888 162.5 129C156.556 130.451 156.667 126 157.5 124C160.3 116.4 167.221 114.237 170 113Z" fill="#4A6427"/>
<path d="M195 113C198.334 117.917 196.279 121.88 193 124C189.493 126.267 186.923 117.655 185.5 114C181.668 104.159 179.912 93.96 180.5 90C181.284 84.7212 183.372 82.6675 187.5 82.5C191.628 82.3324 194.333 84.8333 194 86C193.667 87.1667 193 88.5 193 88.5C192.2 89.3 192.333 88.8333 192.5 88.5C194.1 85.7 192.167 84.3333 191 83.9999C186.2 82.4 185.417 89.5824 185.5 93.4999C185.583 97.4175 191.666 108.083 195 113Z" fill="#4A6427"/>
<path d="M195.389 120.805L196.147 121.689C196.866 122.527 196.77 123.789 195.932 124.509L192.579 127.387C191.741 128.106 190.478 128.01 189.759 127.171L189 126.287L195.389 120.805Z" fill="#4A6427"/>
<path d="M196.515 123.75L196.909 124.209C197.628 125.048 197.532 126.31 196.694 127.03L195.115 128.385C194.276 129.104 193.014 129.008 192.294 128.17L191.9 127.71L196.515 123.75Z" fill="#4A6427"/>
<path d="M161.969 144.688C165.955 144.688 169.188 147.612 169.188 151.219C169.188 151.333 169.184 151.447 169.177 151.56L169.188 151.562C169.302 153.625 168.5 158.094 167.125 160.5C165.312 163.673 159.906 175.281 143.75 171.5C141.344 170.812 136.531 168.406 134.812 165.312L134.8 165.284C134.227 163.907 133.325 161.743 136.875 162.562L141 163.938C142.49 164.281 146.088 164.212 148.563 161.188C150.854 158.387 153.517 152.718 155.082 149.256C156.003 146.608 158.738 144.688 161.969 144.688Z" fill="#D02928"/>
<path d="M134.315 163.02C134.424 163.369 134.565 163.718 134.691 164.029L134.703 164.06C136.496 167.378 141.514 169.96 144.024 170.697C153.555 172.991 159.497 170.002 163.204 166.357C159.76 170.205 153.86 173.866 143.75 171.5C141.344 170.812 136.531 168.406 134.812 165.312L134.8 165.284C134.501 164.565 134.113 163.632 134.315 163.02Z" fill="black" fill-opacity="0.2"/>
<path d="M160.362 145.338L168.73 149.88C168.875 150.264 169.029 150.61 169.187 150.875V152.172C168.906 152.406 168.399 152.382 167.812 151.906C166.632 150.948 166.231 149.294 164.031 149.844C163.916 148.812 163.514 147.138 159.562 147.781C158.903 147.888 158.16 146.117 160.25 145.375C160.286 145.362 160.323 145.35 160.362 145.338Z" fill="black" fill-opacity="0.2"/>
<path d="M167.812 140.562C167.812 138.088 166.437 137.469 165.75 137.125C165.138 136.819 164.716 136.781 164.031 136.781C163.347 136.781 162.656 136.781 162.312 137.125C161.969 137.469 161.969 138.042 161.969 138.156C161.969 138.844 162.558 138.964 163 138.844C163.593 138.682 164.377 138.459 164.719 138.5C166.649 138.734 166.775 141.51 166.094 142.625C165.283 143.952 161.658 143.844 160.25 144.344C158.161 145.085 158.903 146.857 159.562 146.75C163.515 146.107 163.917 147.781 164.031 148.812C166.231 148.262 166.632 149.917 167.812 150.875C168.993 151.833 169.854 150.96 169.187 149.844C168.52 148.728 167.927 146.177 167.812 145.375C167.547 143.514 167.812 142.442 167.812 140.562Z" fill="#617D29"/>
<g clip-path="url(#clip1_73_242)">
<mask id="mask0_73_242" style="mask-type:luminance" maskUnits="userSpaceOnUse" x="83" y="177" width="41" height="41">
<path d="M124 177H83V218H124V177Z" fill="white"/>
</mask>
<g mask="url(#mask0_73_242)">
<path d="M114.407 190.731C119.312 198.637 118.37 208.097 112.304 211.861C106.238 215.624 97.3439 212.266 92.439 204.36C86.5964 196.485 87.3038 187.033 94.5418 183.23C100.698 178.861 109.562 182.417 114.407 190.731Z" fill="#69711B"/>
<path d="M88.5513 192.735C88.5933 196.811 90.4879 201.236 94.1104 205.002C99.1311 211.177 106.544 213.804 112.222 211.91C106.158 215.593 97.3218 212.231 92.4388 204.36C89.6358 200.582 88.3413 196.441 88.5513 192.735Z" fill="black" fill-opacity="0.2"/>
<path d="M97.5901 189.56C100.419 187.798 101.935 185.121 100.975 183.581C100.016 182.041 96.9455 182.22 94.1167 183.982C91.2879 185.743 89.7722 188.42 90.7314 189.96C91.6905 191.501 94.7613 191.321 97.5901 189.56Z" fill="#2C2B07"/>
<path d="M96.8157 188.363C98.6218 187.239 99.5894 185.53 98.977 184.546C98.3647 183.563 96.4042 183.677 94.5982 184.802C92.7922 185.927 91.8245 187.636 92.4369 188.619C93.0493 189.602 95.0097 189.488 96.8157 188.363Z" fill="#A22B06"/>
</g>
</g>
<path d="M220.182 135.194C212.602 137.709 212.918 151.332 214.024 157.829L207.392 160.344C205.118 139.721 214.971 134.984 220.182 135.194Z" fill="#7AA81E"/>
<path d="M220.182 135.194C212.602 137.709 212.918 151.332 214.024 157.829L212.525 158.703C210.252 138.08 217.447 135.734 220.182 135.194Z" fill="black" fill-opacity="0.2"/>
<path d="M226.744 139.563C217.994 141.75 218.359 153.599 219.635 159.25L211.978 161.438C209.353 143.5 220.728 139.38 226.744 139.563Z" fill="#68862B"/>
<path d="M224.896 140.225C218.055 143.523 218.456 154.03 219.635 159.25L217.994 159.797C216.541 146.722 220.234 142.223 224.896 140.225C225.461 139.953 226.076 139.729 226.744 139.562C226.118 139.75 225.499 139.967 224.896 140.225Z" fill="black" fill-opacity="0.2"/>
<path d="M208.709 137.117C203.057 142.904 209.313 153.218 213.148 157.651L208.34 162.956C197.269 148.255 203.973 139.605 208.709 137.117Z" fill="#68862B"/>
<path d="M209.592 155.432L210.87 154.665C207.411 149.569 204.098 141.837 208.709 137.117C207.194 137.855 202.01 143.894 209.592 155.432Z" fill="black" fill-opacity="0.2"/>
<path d="M211.431 154.383L207.205 157.235C203.361 152.81 194.04 145.152 187.509 149.925C190.443 145.87 198.961 140.875 210.677 150.935L211.431 154.383Z" fill="#7AA81E"/>
<path d="M187.509 149.925C194.04 145.152 203.361 152.81 207.205 157.235L208.15 155.969C195.572 143.938 189.325 148.599 187.509 149.925Z" fill="black" fill-opacity="0.2"/>
<path d="M185.188 155.466C191.023 150.014 202.833 156.81 208.009 160.889L213.391 156.27C196.371 144.405 187.497 150.79 185.188 155.466Z" fill="#68862B"/>
<path d="M185.188 155.465C191.023 150.014 202.833 156.81 208.009 160.889L209.791 159.797C193.932 148.859 186.822 153.234 185.188 155.465Z" fill="black" fill-opacity="0.2"/>
<path d="M188.468 164.485C193.858 157.253 204.652 162.154 209.375 165.509L214.343 159.286C198.801 149.954 190.617 158.864 188.468 164.485Z" fill="#7AA81E"/>
<path d="M188.926 163.915C194.447 157.522 204.782 162.247 209.375 165.509L210.338 164.172C196.044 155.589 190.927 161.406 188.926 163.915C188.769 164.096 188.617 164.286 188.468 164.485C188.6 164.328 188.751 164.134 188.926 163.915Z" fill="black" fill-opacity="0.2"/>
<path d="M240.061 166.542C246.66 177.041 245.317 189.877 237.059 195.213C228.802 200.548 216.758 196.362 210.158 185.864C203.558 175.365 204.902 162.529 213.16 157.193C221.417 151.858 233.461 156.044 240.061 166.542Z" fill="#DA972F"/>
<path d="M206.02 173.42C206.616 176.484 207.801 179.548 209.604 182.417C216.366 193.174 229.254 197.108 238.391 191.204C240.488 189.849 242.203 188.093 243.523 186.062C242.474 189.871 240.299 193.119 237.059 195.213C228.802 200.548 216.758 196.363 210.158 185.864C207.65 181.874 206.29 177.546 206.02 173.42Z" fill="black" fill-opacity="0.2"/>
<path d="M162 233C175.255 233 186 222.255 186 209C186 195.745 175.255 185 162 185C148.745 185 138 195.745 138 209C138 222.255 148.745 233 162 233Z" fill="#951A1D"/>
<path d="M162 231C174.15 231 184 221.15 184 209C184 196.85 174.15 187 162 187C149.85 187 140 196.85 140 209C140 221.15 149.85 231 162 231Z" fill="#E8656B"/>
<path d="M148 210C150.209 210 152 208.209 152 206C152 203.791 150.209 202 148 202C145.791 202 144 203.791 144 206C144 208.209 145.791 210 148 210Z" fill="#E6D3CC"/>
<path d="M164.5 213C166.433 213 168 211.433 168 209.5C168 207.567 166.433 206 164.5 206C162.567 206 161 207.567 161 209.5C161 211.433 162.567 213 164.5 213Z" fill="#E6D3CC"/>
<path d="M176 207C178.209 207 180 205.209 180 203C180 200.791 178.209 199 176 199C173.791 199 172 200.791 172 203C172 205.209 173.791 207 176 207Z" fill="#E6D3CC"/>
<path d="M163 226C165.209 226 167 224.209 167 222C167 219.791 165.209 218 163 218C160.791 218 159 219.791 159 222C159 224.209 160.791 226 163 226Z" fill="#E6D3CC"/>
<path d="M156.5 197C157.881 197 159 195.881 159 194.5C159 193.119 157.881 192 156.5 192C155.119 192 154 193.119 154 194.5C154 195.881 155.119 197 156.5 197Z" fill="#E6D3CC"/>
<path d="M167 200C168.105 200 169 199.105 169 198C169 196.895 168.105 196 167 196C165.895 196 165 196.895 165 198C165 199.105 165.895 200 167 200Z" fill="#E6D3CC"/>
<path d="M174 220C175.105 220 176 219.105 176 218C176 216.895 175.105 216 174 216C172.895 216 172 216.895 172 218C172 219.105 172.895 220 174 220Z" fill="#E6D3CC"/>
<path d="M151 219C152.105 219 153 218.105 153 217C153 215.895 152.105 215 151 215C149.895 215 149 215.895 149 217C149 218.105 149.895 219 151 219Z" fill="#E6D3CC"/>
<path d="M138.375 204.748C140.563 218.506 152.097 229 166 229C170.904 229 175.513 227.693 179.521 225.398C175.142 230.076 168.913 233 162 233C148.745 233 138 222.255 138 209C138 207.549 138.128 206.128 138.375 204.748Z" fill="black" fill-opacity="0.2"/>
<path d="M62.5395 81.3586L47.7426 69.5856L52.8243 63.1986C53.6981 62.1004 54.6794 61.3119 55.7682 60.8332C56.8571 60.3544 57.9761 60.1986 59.1253 60.3657C60.2745 60.5328 61.3741 61.0341 62.4242 61.8695C63.4838 62.7126 64.2136 63.6787 64.6136 64.7678C65.0173 65.852 65.0915 66.9847 64.836 68.1659C64.5844 69.3422 64.0102 70.4939 63.1134 71.621L60.0782 75.4359L56.957 72.9525L59.3484 69.9469C59.724 69.4748 59.9621 69.0075 60.0627 68.5448C60.1624 68.0735 60.129 67.6261 59.9625 67.2026C59.7999 66.7743 59.5091 66.3935 59.09 66.0601C58.6661 65.7228 58.2321 65.5269 57.7878 65.4723C57.3426 65.4091 56.9063 65.4829 56.4791 65.6936C56.0509 65.8956 55.649 66.2327 55.2734 66.7047L54.1467 68.1208L65.7357 77.3415L62.5395 81.3586Z" fill="#0A0A0A"/>
<path d="M76.9979 64.2341L67.3057 53.881L71.0263 50.3979L80.7185 60.7509L76.9979 64.2341ZM68.1564 51.061C67.6531 51.5322 67.0661 51.7697 66.3953 51.7738C65.7246 51.7778 65.1704 51.5461 64.7329 51.0788C64.2954 50.6115 64.1008 50.0433 64.149 49.3742C64.1972 48.7052 64.4729 48.1351 64.9762 47.6639C65.4839 47.1886 66.071 46.951 66.7372 46.9512C67.408 46.9472 67.9622 47.1788 68.3996 47.6461C68.8371 48.1135 69.0318 48.6817 68.9836 49.3507C68.9399 50.0156 68.6642 50.5857 68.1564 51.061Z" fill="#0A0A0A"/>
<path d="M85.4583 56.2478L83.8382 53.9558L84.6198 44.3126L84.5771 44.2523L79.6915 47.7058L77.4531 44.5393L87.2545 37.6109L89.0452 40.1441L88.5454 49.2263L88.588 49.2866L93.3832 45.897L95.6215 49.0636L85.4583 56.2478Z" fill="#0A0A0A"/>
<path d="M102.515 44.6246L101.326 42.0823L103.8 32.7292L103.768 32.6623L98.3492 35.1977L96.7058 31.6853L107.578 26.5988L108.892 29.4087L106.795 38.2594L106.826 38.3263L112.145 35.8378L113.788 39.3503L102.515 44.6246Z" fill="#0A0A0A"/>
<path d="M125.085 35.4425C124.21 35.675 123.399 35.7378 122.651 35.6309C121.907 35.5166 121.266 35.2155 120.729 34.7278C120.192 34.2401 119.802 33.5412 119.56 32.631C119.361 31.8815 119.319 31.208 119.434 30.6106C119.547 30.0072 119.788 29.4751 120.156 29.0143C120.524 28.5534 120.988 28.1531 121.547 27.8133C122.112 27.472 122.742 27.1804 123.435 26.9387C124.187 26.6752 124.784 26.4402 125.225 26.2335C125.672 26.0194 125.978 25.8073 126.145 25.5973C126.311 25.3813 126.359 25.1424 126.289 24.8807L126.28 24.845C126.185 24.4881 125.975 24.2508 125.651 24.1332C125.327 24.0156 124.951 24.0137 124.522 24.1276C124.052 24.2525 123.696 24.4586 123.454 24.7459C123.217 25.0256 123.124 25.3846 123.177 25.8228L118.644 27.0278C118.482 26.1792 118.543 25.3414 118.826 24.5146C119.114 23.6802 119.657 22.9308 120.454 22.2665C121.251 21.5962 122.33 21.08 123.692 20.7179C124.674 20.4569 125.585 20.3389 126.426 20.3637C127.265 20.3826 128.013 20.5245 128.67 20.7895C129.324 21.0485 129.867 21.4137 130.298 21.8851C130.734 22.3489 131.036 22.8991 131.205 23.5356L133.701 32.9226L129.097 34.1466L128.584 32.2193L128.477 32.2477C128.339 32.8321 128.116 33.3341 127.807 33.7537C127.505 34.1718 127.122 34.5186 126.661 34.7942C126.205 35.0683 125.679 35.2843 125.085 35.4425ZM125.865 31.9103C126.24 31.8107 126.57 31.64 126.856 31.3984C127.148 31.1552 127.36 30.8601 127.491 30.5133C127.621 30.1664 127.631 29.7848 127.521 29.3684L127.217 28.2263C127.1 28.3146 126.974 28.4023 126.838 28.4895C126.708 28.575 126.565 28.6607 126.409 28.7467C126.26 28.831 126.098 28.9155 125.923 29.0002C125.754 29.0834 125.575 29.1659 125.387 29.2478C125.022 29.4085 124.736 29.5897 124.528 29.7914C124.325 29.9855 124.19 30.1965 124.123 30.4245C124.061 30.6449 124.061 30.874 124.124 31.112C124.226 31.4927 124.437 31.7486 124.758 31.8797C125.08 32.0108 125.449 32.021 125.865 31.9103Z" fill="#0A0A0A"/>
<path d="M149.161 30.349L148.764 11.4441L162.056 11.1648L162.143 15.3002L153.983 15.4717L154.051 18.721L161.399 18.5666L161.486 22.702L154.138 22.8564L154.293 30.2411L149.161 30.349Z" fill="#0A0A0A"/>
<path d="M175.155 31.4416C173.634 31.2089 172.378 30.7085 171.387 29.9405C170.397 29.1664 169.696 28.1936 169.284 27.0221C168.872 25.8445 168.776 24.5378 168.996 23.1018C169.216 21.6659 169.697 20.4506 170.441 19.456C171.186 18.4553 172.146 17.7366 173.321 17.2999C174.497 16.8571 175.846 16.752 177.367 16.9847C178.888 17.2174 180.143 17.7208 181.133 18.4949C182.124 19.263 182.825 20.2357 183.237 21.4133C183.649 22.5848 183.746 23.8885 183.526 25.3244C183.306 26.7604 182.824 27.9787 182.079 28.9794C181.336 29.974 180.376 30.6927 179.2 31.1355C178.025 31.5722 176.676 31.6742 175.155 31.4416ZM175.761 27.7234C176.187 27.7886 176.577 27.7019 176.931 27.4634C177.285 27.2249 177.588 26.854 177.839 26.3507C178.091 25.8474 178.272 25.2307 178.384 24.5005C178.497 23.7643 178.508 23.1215 178.417 22.5722C178.328 22.0168 178.15 21.5723 177.883 21.2389C177.617 20.9055 177.271 20.7062 176.845 20.641C176.394 20.5721 175.986 20.656 175.62 20.8927C175.254 21.1293 174.945 21.4993 174.694 22.0026C174.443 22.4998 174.262 23.1165 174.149 23.8527C174.037 24.5829 174.026 25.2257 174.116 25.7811C174.205 26.3365 174.389 26.7818 174.668 27.1171C174.947 27.4524 175.311 27.6545 175.761 27.7234Z" fill="#0A0A0A"/>
<path d="M189.586 33.9068L193.938 20.4093L198.648 21.9281L197.821 24.494L197.962 24.5393C198.514 23.6696 199.127 23.101 199.802 22.8336C200.482 22.568 201.183 22.5514 201.904 22.7837C202.115 22.8517 202.317 22.9364 202.511 23.0376C202.712 23.1349 202.9 23.244 203.074 23.365L201.74 27.5038C201.526 27.3444 201.25 27.1875 200.912 27.0331C200.573 26.8788 200.278 26.761 200.026 26.6797C199.552 26.5267 199.089 26.4972 198.639 26.5912C198.196 26.6812 197.804 26.8846 197.462 27.2013C197.123 27.5122 196.87 27.9254 196.703 28.4409L194.437 35.4709L189.586 33.9068Z" fill="#0A0A0A"/>
<path d="M221.035 25.5785L225.936 28.5365L225.129 37.0217L225.255 37.098L232.387 32.4297L237.288 35.3877L224.645 42.8982L221.572 47.9888L217.209 45.3552L220.281 40.2646L221.035 25.5785Z" fill="#0A0A0A"/>
<path d="M235.341 58.4935C234.194 57.4675 233.416 56.3621 233.006 55.1775C232.6 53.9882 232.544 52.7903 232.839 51.5839C233.137 50.3729 233.771 49.226 234.74 48.1434C235.708 47.0608 236.776 46.3061 237.942 45.8795C239.112 45.4482 240.309 45.3708 241.532 45.6471C242.759 45.9189 243.946 46.5678 245.093 47.5939C246.239 48.6199 247.016 49.7275 247.422 50.9168C247.832 52.1015 247.888 53.2993 247.589 54.5104C247.295 55.7168 246.663 56.8613 245.694 57.944C244.726 59.0266 243.656 59.7835 242.486 60.2148C241.319 60.6415 240.123 60.7189 238.896 60.4471C237.673 60.1707 236.488 59.5195 235.341 58.4935ZM237.881 55.7107C238.202 55.9979 238.576 56.1384 239.002 56.1321C239.429 56.1258 239.886 55.9806 240.371 55.6964C240.857 55.4122 241.346 54.9949 241.838 54.4444C242.335 53.8893 242.695 53.3571 242.92 52.8476C243.148 52.3336 243.242 51.8641 243.201 51.4392C243.16 51.0143 242.979 50.6582 242.658 50.3709C242.318 50.0672 241.93 49.9144 241.494 49.9125C241.058 49.9106 240.598 50.0517 240.112 50.3359C239.631 50.6155 239.142 51.0329 238.645 51.5879C238.153 52.1384 237.792 52.6707 237.564 53.1847C237.335 53.6987 237.246 54.1723 237.296 54.6054C237.346 55.0385 237.541 55.407 237.881 55.7107Z" fill="#0A0A0A"/>
<path d="M256.898 72.0299L263.246 67.1995L266.332 71.2555L255.046 79.8428L252.117 75.9925L254.262 74.3601L254.173 74.2425C253.266 74.5455 252.377 74.5454 251.504 74.2425C250.637 73.9358 249.882 73.3611 249.241 72.5186C248.641 71.7299 248.297 70.9013 248.208 70.0328C248.124 69.1691 248.275 68.3309 248.662 67.5182C249.053 66.7104 249.658 65.9909 250.477 65.3599L257.678 59.881L260.764 63.937L254.416 68.7674C253.861 69.1972 253.53 69.6728 253.425 70.1943C253.322 70.7207 253.465 71.2386 253.853 71.7481C254.11 72.0861 254.403 72.3235 254.731 72.4603C255.068 72.5983 255.419 72.6328 255.784 72.5638C256.158 72.496 256.529 72.318 256.898 72.0299Z" fill="#0A0A0A"/>
<path d="M105.171 290.429L112.522 273.007L120.076 276.194C121.403 276.754 122.442 277.403 123.193 278.141C123.949 278.881 124.42 279.674 124.604 280.52C124.794 281.368 124.702 282.235 124.329 283.12C124.058 283.761 123.67 284.285 123.164 284.693C122.663 285.103 122.085 285.38 121.43 285.524C120.777 285.663 120.084 285.658 119.352 285.509L119.28 285.679C120.017 286.024 120.617 286.501 121.081 287.111C121.548 287.715 121.833 288.4 121.938 289.166C122.045 289.926 121.925 290.717 121.578 291.539C121.176 292.492 120.568 293.235 119.756 293.767C118.949 294.302 117.999 294.589 116.907 294.629C115.814 294.669 114.636 294.422 113.371 293.889L105.171 290.429ZM111.494 288.647L113.706 289.581C114.5 289.916 115.157 290.019 115.679 289.892C116.203 289.759 116.588 289.4 116.834 288.816C117.007 288.408 117.059 288.022 116.991 287.66C116.924 287.297 116.748 286.969 116.465 286.676C116.187 286.385 115.806 286.138 115.324 285.934L113.045 284.972L111.494 288.647ZM114.279 282.046L116.219 282.865C116.633 283.039 117.026 283.128 117.399 283.132C117.771 283.135 118.097 283.052 118.376 282.883C118.663 282.71 118.881 282.445 119.032 282.087C119.259 281.549 119.24 281.056 118.974 280.61C118.71 280.158 118.284 279.807 117.694 279.559L115.686 278.712L114.279 282.046Z" fill="#0A0A0A"/>
<path d="M128.139 304.913C127.568 304.787 127.034 304.622 126.537 304.417C126.039 304.219 125.611 304.002 125.253 303.766L127.115 300.47C127.492 300.704 127.844 300.88 128.171 300.996C128.505 301.113 128.801 301.154 129.062 301.117C129.328 301.081 129.543 300.949 129.707 300.72L129.871 300.491L128.192 284.955L133.385 286.101L133.505 296.187L133.649 296.219L138.037 287.127L143.267 288.28L134.909 302.17C134.488 302.877 133.97 303.482 133.355 303.983C132.745 304.491 132.014 304.837 131.16 305.021C130.306 305.205 129.299 305.168 128.139 304.913Z" fill="#0A0A0A"/>
<path d="M154.549 285.26L160.267 284.992L164.316 292.492L164.464 292.485L167.793 284.639L173.511 284.371L167.183 297.645L167.461 303.584L162.37 303.823L162.092 297.883L154.549 285.26Z" fill="#0A0A0A"/>
<path d="M183.942 301.747C182.442 302.09 181.09 302.087 179.886 301.738C178.68 301.382 177.67 300.736 176.856 299.798C176.04 298.855 175.47 297.675 175.145 296.259C174.821 294.843 174.822 293.536 175.147 292.338C175.471 291.133 176.099 290.111 177.031 289.273C177.962 288.428 179.177 287.834 180.677 287.491C182.177 287.147 183.53 287.153 184.735 287.508C185.939 287.858 186.949 288.504 187.765 289.448C188.58 290.385 189.149 291.562 189.473 292.978C189.798 294.394 189.798 295.704 189.474 296.909C189.148 298.107 188.52 299.129 187.59 299.973C186.658 300.812 185.442 301.403 183.942 301.747ZM183.137 298.066C183.557 297.97 183.888 297.746 184.129 297.394C184.37 297.042 184.515 296.586 184.564 296.025C184.612 295.465 184.554 294.824 184.389 294.104C184.223 293.378 183.997 292.777 183.711 292.299C183.423 291.816 183.094 291.468 182.723 291.256C182.353 291.044 181.957 290.986 181.537 291.082C181.093 291.184 180.745 291.412 180.491 291.767C180.238 292.122 180.087 292.58 180.039 293.14C179.989 293.695 180.047 294.335 180.213 295.061C180.378 295.781 180.604 296.383 180.892 296.866C181.179 297.35 181.514 297.696 181.897 297.905C182.28 298.114 182.693 298.168 183.137 298.066Z" fill="#0A0A0A"/>
<path d="M203.573 288.92L200.438 281.584L205.124 279.581L210.698 292.622L206.249 294.523L205.189 292.044L205.053 292.102C205.126 293.055 204.909 293.918 204.402 294.69C203.893 295.457 203.152 296.048 202.178 296.464C201.267 296.853 200.379 296.985 199.515 296.859C198.657 296.73 197.881 296.379 197.188 295.805C196.5 295.229 195.949 294.467 195.537 293.518L191.982 285.198L196.668 283.195L199.803 290.531C200.085 291.173 200.465 291.61 200.945 291.84C201.431 292.068 201.968 292.056 202.556 291.804C202.947 291.637 203.248 291.411 203.461 291.126C203.677 290.833 203.797 290.501 203.819 290.13C203.844 289.751 203.762 289.347 203.573 288.92Z" fill="#0A0A0A"/>
<defs>
<clipPath id="clip0_73_242">
<rect width="47.8228" height="47.8228" fill="white" transform="translate(98.1526 93) rotate(22.3076)"/>
</clipPath>
<clipPath id="clip1_73_242">
<rect width="41" height="41" fill="white" transform="translate(83 177)"/>
</clipPath>
</defs>
</svg>
