<svg width="256" height="256" viewBox="0 0 256 256" fill="none" xmlns="http://www.w3.org/2000/svg">
<path d="M128 244C192.065 244 244 192.065 244 128C244 94.7024 229.97 64.6815 207.5 43.5262C186.737 23.9784 158.767 12 128 12C63.935 12 12 63.935 12 128C12 192.065 63.935 244 128 244Z" fill="#CC9B3D"/>
<circle cx="128" cy="128" r="104" fill="#E4B342"/>
<g clip-path="url(#clip0_73_9)">
<path d="M87.8378 105.986C86.7033 108.752 84.8952 115.279 84.7534 115.624C84.6138 115.965 80.3586 118.53 73.6924 115.929L73.3733 115.801C66.524 112.991 65.255 108.028 65.3968 107.683C65.5386 107.337 68.8359 101.421 69.9704 98.6556C72.126 100.186 76.6353 102.198 78.6205 103.012L79.4793 103.357C81.7297 104.24 85.5546 105.615 87.8378 105.986Z" fill="#CE8E52"/>
<path d="M87.8378 105.986C87.6035 106.557 87.3412 107.289 87.07 108.094L87.0402 108.082C79.6813 106.354 72.1935 101.993 69.3592 100.022C69.5969 99.5184 69.8068 99.0544 69.9705 98.6554C72.126 100.186 76.6353 102.198 78.6205 103.012L79.4793 103.357C81.7297 104.24 85.5547 105.615 87.8378 105.986Z" fill="black" fill-opacity="0.2"/>
<path d="M62.951 86.0836C68.0564 73.64 81.8383 76.4677 88.4057 79.1622L78.4785 103.358C69.8372 99.8125 66.2093 96.8433 65.3615 95.9569C61.5044 92.7591 62.1473 88.0422 62.951 86.0836Z" fill="#C26B3F"/>
<path d="M101.664 101.967C106.77 89.5234 94.9732 81.8566 88.4058 79.1621L78.4786 103.358C87.1199 106.903 91.7878 107.338 93.0139 107.302C98.0055 107.735 100.861 103.926 101.664 101.967Z" fill="#C26B3F"/>
</g>
<path d="M123 79C122.6 78.2 123.166 76.3333 123.5 75.5L128.5 81C127.7 83 129.167 83.8333 130 84C132.4 84 132.333 84.6667 132 85C130.8 86.2 129.167 85.8333 128.5 85.5C126.1 83.9 123.833 80.5 123 79Z" fill="#405325"/>
<path d="M123.5 76.5C128.154 82.222 132.5 84.5 134 85L135 84L125 73C123.4 74.6 123.167 76.0911 123.5 76.5Z" fill="#4A6427"/>
<path d="M134.5 84L137 87L129 94L126 100C125.6 99.6 125.833 98.1667 126 97.5C126 97.5 126.739 94.0923 127.5 92C129.1 87.6 132.833 84.8333 134.5 84Z" fill="#405325"/>
<path d="M149.5 61.5C149.1 59.5 145.667 56.3332 144 54.9999C143.847 54.8779 144 55.5 143.5 54.9999L146 60.5C148 60.9 148.5 62 148.5 62.5C148.5 64.1 148.833 64.5 149 64.5C149.4 64.1 149.5 62.3333 149.5 61.5Z" fill="#405325"/>
<path d="M144 54.9999C143.6 55.7999 147.833 63.6665 150 67.4999L150 69C150 69 140.5 60.5 140 59.4998C139.5 58.4997 139.297 57.4371 140 56.4999C141.2 54.8999 143 54.5 144 54.9999Z" fill="#4A6427"/>
<path d="M145.62 63.3655C152.487 71.2994 154.208 81.061 149.462 85.1687C144.717 89.2764 135.303 86.1747 128.435 78.2408C121.567 70.307 119.847 60.5453 124.592 56.4376C129.338 52.3299 138.752 55.4316 145.62 63.3655Z" fill="#E7BE01"/>
<path d="M139.5 90L127.5 77L146 64L150 68.5L156 90.5L139.5 90Z" fill="#E7BE01"/>
<path d="M157.913 97.039C161.413 95.3724 166.213 91.439 157.413 89.039C154.338 86.9103 148.102 83.8655 144 83.1922C139.898 82.519 137 88.9501 137 88.9501C137.794 89.0869 138.603 89.4317 139.413 90.039L151.913 98.039C152.413 98.3724 154.313 98.639 157.913 97.039Z" fill="#B99801"/>
<path d="M149.5 68C149.66 72.8839 148.923 79.3202 152.111 87.5079C153.535 91.1634 156.104 99.7754 159.611 97.5079C162.891 95.3876 164.945 91.4252 161.611 86.5079C158.678 82.1821 153.618 73.408 152.387 68.6927L149.5 68Z" fill="#B99801"/>
<path d="M139 86.0001C143.765 83.8792 153.167 88.5001 157.5 91.5001C166.3 93.9001 161.5 97.8335 158 99.5001C154.4 101.1 152.5 100.833 152 100.5L139.5 92.5001C134.7 88.9001 129.932 94.5255 128 98C126.953 99.8825 128.689 100.707 130 101C131.234 101.276 131.833 99.8334 132 99.0001C132.5 100 131.958 101.888 131.5 102C125.556 103.451 125.667 99.0001 126.5 97.0001C129.3 89.4001 136.221 87.237 139 86.0001Z" fill="#4A6427"/>
<path d="M164 85.9999C167.334 90.9172 165.279 94.8796 162 96.9999C158.493 99.2674 155.923 90.6554 154.5 87C150.668 77.1594 148.912 66.96 149.5 63C150.284 57.7212 152.372 55.6675 156.5 55.5C160.628 55.3324 163.333 57.8333 163 59C162.667 60.1667 162 61.5 162 61.5C161.2 62.3 161.333 61.8333 161.5 61.5C163.1 58.7 161.167 57.3333 160 56.9999C155.2 55.4 154.417 62.5824 154.5 66.4999C154.583 70.4175 160.666 81.0827 164 85.9999Z" fill="#4A6427"/>
<path d="M164.389 93.8047L165.147 94.6886C165.866 95.5268 165.77 96.7895 164.932 97.5088L161.579 100.387C160.741 101.106 159.478 101.01 158.759 100.171L158 99.2875L164.389 93.8047Z" fill="#4A6427"/>
<path d="M165.515 96.75L165.909 97.2095C166.628 98.0477 166.532 99.3103 165.694 100.03L164.115 101.385C163.276 102.104 162.014 102.008 161.294 101.17L160.9 100.71L165.515 96.75Z" fill="#4A6427"/>
<path d="M130.969 117.688C134.955 117.688 138.188 120.612 138.188 124.219C138.188 124.333 138.184 124.447 138.177 124.56L138.188 124.562C138.302 126.625 137.5 131.094 136.125 133.5C134.312 136.673 128.906 148.281 112.75 144.5C110.344 143.812 105.531 141.406 103.812 138.312L103.8 138.284C103.227 136.907 102.325 134.743 105.875 135.562L110 136.938C111.49 137.281 115.088 137.212 117.563 134.188C119.854 131.387 122.517 125.718 124.082 122.256C125.003 119.608 127.738 117.688 130.969 117.688Z" fill="#D02928"/>
<path d="M103.315 136.02C103.424 136.369 103.565 136.718 103.691 137.029L103.703 137.06C105.496 140.378 110.514 142.96 113.024 143.697C122.555 145.991 128.497 143.002 132.204 139.357C128.76 143.205 122.86 146.866 112.75 144.5C110.344 143.812 105.531 141.406 103.812 138.312L103.8 138.284C103.501 137.565 103.113 136.632 103.315 136.02Z" fill="black" fill-opacity="0.2"/>
<path d="M129.362 118.338L137.73 122.88C137.875 123.264 138.029 123.61 138.187 123.875V125.172C137.906 125.406 137.399 125.382 136.812 124.906C135.632 123.948 135.231 122.294 133.031 122.844C132.916 121.812 132.514 120.138 128.562 120.781C127.903 120.888 127.16 119.117 129.25 118.375C129.286 118.362 129.323 118.35 129.362 118.338Z" fill="black" fill-opacity="0.2"/>
<path d="M136.812 113.562C136.812 111.088 135.437 110.469 134.75 110.125C134.138 109.819 133.716 109.781 133.031 109.781C132.347 109.781 131.656 109.781 131.312 110.125C130.969 110.469 130.969 111.042 130.969 111.156C130.969 111.844 131.558 111.964 132 111.844C132.593 111.682 133.377 111.459 133.719 111.5C135.649 111.734 135.775 114.51 135.094 115.625C134.283 116.952 130.658 116.844 129.25 117.344C127.161 118.085 127.903 119.857 128.562 119.75C132.515 119.107 132.917 120.781 133.031 121.812C135.231 121.262 135.632 122.917 136.812 123.875C137.993 124.833 138.854 123.96 138.187 122.844C137.52 121.728 136.927 119.177 136.812 118.375C136.547 116.514 136.812 115.442 136.812 113.562Z" fill="#617D29"/>
<g clip-path="url(#clip1_73_9)">
<mask id="mask0_73_9" style="mask-type:luminance" maskUnits="userSpaceOnUse" x="52" y="150" width="41" height="41">
<path d="M93 150H52V191H93V150Z" fill="white"/>
</mask>
<g mask="url(#mask0_73_9)">
<path d="M83.4069 163.731C88.3119 171.637 87.3704 181.097 81.3041 184.861C75.2379 188.624 66.3439 185.266 61.439 177.36C55.5964 169.485 56.3038 160.033 63.5418 156.23C69.6981 151.861 78.5621 155.417 83.4069 163.731Z" fill="#69711B"/>
<path d="M57.5513 165.735C57.5933 169.811 59.4879 174.236 63.1104 178.002C68.1311 184.177 75.5437 186.804 81.2219 184.91C75.1577 188.593 66.3218 185.231 61.4388 177.36C58.6358 173.582 57.3413 169.441 57.5513 165.735Z" fill="black" fill-opacity="0.2"/>
<path d="M66.5901 162.56C69.419 160.798 70.9346 158.121 69.9755 156.581C69.0163 155.041 65.9455 155.22 63.1167 156.982C60.2879 158.743 58.7722 161.42 59.7314 162.96C60.6905 164.501 63.7613 164.321 66.5901 162.56Z" fill="#2C2B07"/>
<path d="M65.8157 161.363C67.6218 160.239 68.5894 158.53 67.977 157.546C67.3647 156.563 65.4042 156.677 63.5982 157.802C61.7922 158.927 60.8245 160.636 61.4369 161.619C62.0493 162.602 64.0097 162.488 65.8157 161.363Z" fill="#A22B06"/>
</g>
</g>
<path d="M189.182 108.194C181.602 110.709 181.918 124.332 183.024 130.829L176.392 133.344C174.118 112.721 183.971 107.984 189.182 108.194Z" fill="#7AA81E"/>
<path d="M189.182 108.194C181.602 110.709 181.918 124.332 183.024 130.829L181.525 131.703C179.252 111.08 186.447 108.734 189.182 108.194Z" fill="black" fill-opacity="0.2"/>
<path d="M195.744 112.563C186.994 114.75 187.359 126.599 188.635 132.25L180.978 134.438C178.353 116.5 189.728 112.38 195.744 112.563Z" fill="#68862B"/>
<path d="M193.896 113.225C187.055 116.523 187.456 127.03 188.635 132.25L186.994 132.797C185.541 119.722 189.234 115.223 193.896 113.225C194.461 112.953 195.076 112.729 195.744 112.562C195.118 112.75 194.499 112.967 193.896 113.225Z" fill="black" fill-opacity="0.2"/>
<path d="M177.709 110.117C172.057 115.904 178.313 126.218 182.148 130.651L177.34 135.956C166.269 121.255 172.973 112.605 177.709 110.117Z" fill="#68862B"/>
<path d="M178.592 128.432L179.87 127.665C176.411 122.569 173.098 114.837 177.709 110.117C176.194 110.855 171.01 116.894 178.592 128.432Z" fill="black" fill-opacity="0.2"/>
<path d="M180.431 127.383L176.205 130.235C172.361 125.81 163.04 118.152 156.509 122.925C159.443 118.87 167.961 113.875 179.677 123.935L180.431 127.383Z" fill="#7AA81E"/>
<path d="M156.509 122.925C163.04 118.152 172.361 125.81 176.205 130.235L177.15 128.969C164.572 116.938 158.325 121.599 156.509 122.925Z" fill="black" fill-opacity="0.2"/>
<path d="M154.188 128.466C160.023 123.014 171.833 129.81 177.009 133.889L182.391 129.27C165.371 117.405 156.497 123.79 154.188 128.466Z" fill="#68862B"/>
<path d="M154.188 128.465C160.023 123.014 171.833 129.81 177.009 133.889L178.791 132.797C162.932 121.859 155.822 126.234 154.188 128.465Z" fill="black" fill-opacity="0.2"/>
<path d="M157.468 137.485C162.858 130.253 173.652 135.154 178.375 138.509L183.343 132.286C167.801 122.954 159.617 131.864 157.468 137.485Z" fill="#7AA81E"/>
<path d="M157.926 136.915C163.447 130.522 173.782 135.247 178.375 138.509L179.338 137.172C165.044 128.589 159.927 134.406 157.926 136.915C157.769 137.096 157.617 137.286 157.468 137.485C157.6 137.328 157.751 137.134 157.926 136.915Z" fill="black" fill-opacity="0.2"/>
<path d="M209.061 139.542C215.66 150.041 214.317 162.877 206.059 168.213C197.802 173.548 185.758 169.362 179.158 158.864C172.558 148.365 173.902 135.529 182.16 130.193C190.417 124.858 202.461 129.044 209.061 139.542Z" fill="#DA972F"/>
<path d="M175.02 146.42C175.616 149.484 176.801 152.548 178.604 155.417C185.366 166.174 198.254 170.108 207.391 164.204C209.488 162.849 211.203 161.093 212.523 159.062C211.474 162.871 209.299 166.119 206.059 168.213C197.802 173.548 185.758 169.363 179.158 158.864C176.65 154.874 175.29 150.546 175.02 146.42Z" fill="black" fill-opacity="0.2"/>
<path d="M131 206C144.255 206 155 195.255 155 182C155 168.745 144.255 158 131 158C117.745 158 107 168.745 107 182C107 195.255 117.745 206 131 206Z" fill="#951A1D"/>
<path d="M131 204C143.15 204 153 194.15 153 182C153 169.85 143.15 160 131 160C118.85 160 109 169.85 109 182C109 194.15 118.85 204 131 204Z" fill="#E8656B"/>
<path d="M117 183C119.209 183 121 181.209 121 179C121 176.791 119.209 175 117 175C114.791 175 113 176.791 113 179C113 181.209 114.791 183 117 183Z" fill="#E6D3CC"/>
<path d="M133.5 186C135.433 186 137 184.433 137 182.5C137 180.567 135.433 179 133.5 179C131.567 179 130 180.567 130 182.5C130 184.433 131.567 186 133.5 186Z" fill="#E6D3CC"/>
<path d="M145 180C147.209 180 149 178.209 149 176C149 173.791 147.209 172 145 172C142.791 172 141 173.791 141 176C141 178.209 142.791 180 145 180Z" fill="#E6D3CC"/>
<path d="M132 199C134.209 199 136 197.209 136 195C136 192.791 134.209 191 132 191C129.791 191 128 192.791 128 195C128 197.209 129.791 199 132 199Z" fill="#E6D3CC"/>
<path d="M125.5 170C126.881 170 128 168.881 128 167.5C128 166.119 126.881 165 125.5 165C124.119 165 123 166.119 123 167.5C123 168.881 124.119 170 125.5 170Z" fill="#E6D3CC"/>
<path d="M136 173C137.105 173 138 172.105 138 171C138 169.895 137.105 169 136 169C134.895 169 134 169.895 134 171C134 172.105 134.895 173 136 173Z" fill="#E6D3CC"/>
<path d="M143 193C144.105 193 145 192.105 145 191C145 189.895 144.105 189 143 189C141.895 189 141 189.895 141 191C141 192.105 141.895 193 143 193Z" fill="#E6D3CC"/>
<path d="M120 192C121.105 192 122 191.105 122 190C122 188.895 121.105 188 120 188C118.895 188 118 188.895 118 190C118 191.105 118.895 192 120 192Z" fill="#E6D3CC"/>
<path d="M107.375 177.748C109.563 191.506 121.097 202 135 202C139.904 202 144.513 200.693 148.521 198.398C144.142 203.076 137.913 206 131 206C117.745 206 107 195.255 107 182C107 180.549 107.128 179.128 107.375 177.748Z" fill="black" fill-opacity="0.2"/>
<defs>
<clipPath id="clip0_73_9">
<rect width="47.8228" height="47.8228" fill="white" transform="translate(67.1526 66) rotate(22.3076)"/>
</clipPath>
<clipPath id="clip1_73_9">
<rect width="41" height="41" fill="white" transform="translate(52 150)"/>
</clipPath>
</defs>
</svg>
