{
	"asset":{
		"generator":"Khronos glTF Blender I/O v5.0.21",
		"version":"2.0"
	},
	"scene":0,
	"scenes":[
		{
			"name":"Scene",
			"nodes":[
				0
			]
		}
	],
	"nodes":[
		{
			"mesh":0,
			"name":"Testo",
			"scale":[
				1.25,
				1,
				0.7200000286102295
			],
			"translation":[
				-1,
				0,
				0
			]
		}
	],
	"animations":[
		{
			"channels":[
				{
					"sampler":0,
					"target":{
						"node":0,
						"path":"translation"
					}
				},
				{
					"sampler":1,
					"target":{
						"node":0,
						"path":"rotation"
					}
				},
				{
					"sampler":2,
					"target":{
						"node":0,
						"path":"scale"
					}
				}
			],
			"name":"TestoAction",
			"samplers":[
				{
					"input":6,
					"interpolation":"LINEAR",
					"output":7
				},
				{
					"input":6,
					"interpolation":"LINEAR",
					"output":8
				},
				{
					"input":6,
					"interpolation":"LINEAR",
					"output":9
				}
			]
		}
	],
	"materials":[
		{
			"doubleSided":true,
			"name":"Material.001",
			"pbrMetallicRoughness":{
				"metallicFactor":0.5090909004211426,
				"roughnessFactor":0.47727271914482117
			}
		}
	],
	"meshes":[
		{
			"name":"Circle",
			"primitives":[
				{
					"attributes":{
						"POSITION":0,
						"NORMAL":1,
						"TEXCOORD_0":2,
						"TANGENT":3,
						"COLOR_0":4
					},
					"indices":5,
					"material":0
				}
			]
		}
	],
	"accessors":[
		{
			"bufferView":0,
			"componentType":5126,
			"count":31746,
			"max":[
				0.12836085259914398,
				0.014007912948727608,
				0.12970761954784393
			],
			"min":[
				-0.12961865961551666,
				-0.00042151263915002346,
				-0.13056981563568115
			],
			"type":"VEC3"
		},
		{
			"bufferView":1,
			"componentType":5126,
			"count":31746,
			"type":"VEC3"
		},
		{
			"bufferView":2,
			"componentType":5126,
			"count":31746,
			"type":"VEC2"
		},
		{
			"bufferView":3,
			"componentType":5126,
			"count":31746,
			"type":"VEC4"
		},
		{
			"bufferView":4,
			"componentType":5126,
			"count":31746,
			"type":"VEC3"
		},
		{
			"bufferView":5,
			"componentType":5123,
			"count":190464,
			"type":"SCALAR"
		},
		{
			"bufferView":6,
			"componentType":5126,
			"count":24,
			"max":[
				1
			],
			"min":[
				0.041666666666666664
			],
			"type":"SCALAR"
		},
		{
			"bufferView":7,
			"componentType":5126,
			"count":24,
			"type":"VEC3"
		},
		{
			"bufferView":8,
			"componentType":5126,
			"count":24,
			"type":"VEC4"
		},
		{
			"bufferView":9,
			"componentType":5126,
			"count":24,
			"type":"VEC3"
		}
	],
	"bufferViews":[
		{
			"buffer":0,
			"byteLength":380952,
			"byteOffset":0,
			"target":34962
		},
		{
			"buffer":0,
			"byteLength":380952,
			"byteOffset":380952,
			"target":34962
		},
		{
			"buffer":0,
			"byteLength":253968,
			"byteOffset":761904,
			"target":34962
		},
		{
			"buffer":0,
			"byteLength":507936,
			"byteOffset":1015872,
			"target":34962
		},
		{
			"buffer":0,
			"byteLength":380952,
			"byteOffset":1523808,
			"target":34962
		},
		{
			"buffer":0,
			"byteLength":380928,
			"byteOffset":1904760,
			"target":34963
		},
		{
			"buffer":0,
			"byteLength":96,
			"byteOffset":2285688
		},
		{
			"buffer":0,
			"byteLength":288,
			"byteOffset":2285784
		},
		{
			"buffer":0,
			"byteLength":384,
			"byteOffset":2286072
		},
		{
			"buffer":0,
			"byteLength":288,
			"byteOffset":2286456
		}
	],
	"buffers":[
		{
			"byteLength":2286744,
			"uri":"testo-anim.bin"
		}
	]
}
