{
	"asset":{
		"generator":"Khronos glTF Blender I/O v5.0.21",
		"version":"2.0"
	},
	"extensionsUsed":[
		"KHR_materials_unlit",
		"EXT_texture_webp"
	],
	"scene":0,
	"scenes":[
		{
			"name":"Scene",
			"nodes":[
				0,
				1,
				2,
				3,
				4
			]
		}
	],
	"nodes":[
		{
			"mesh":0,
			"name":"papri\u010dka.001",
			"rotation":[
				0.7057688236236572,
				-0.18684425950050354,
				0.36830267310142517,
				0.5756151080131531
			],
			"scale":[
				0.021303318440914154,
				0.021303318440914154,
				0.021303318440914154
			],
			"translation":[
				0.04186172038316727,
				0.6251723170280457,
				-0.00022919150069355965
			]
		},
		{
			"mesh":1,
			"name":"papri\u010dka.002",
			"rotation":[
				0.7488517165184021,
				0.22409550845623016,
				-0.25312963128089905,
				0.5700242519378662
			],
			"scale":[
				0.021303318440914154,
				0.021303316578269005,
				0.021303318440914154
			],
			"translation":[
				0.05209515616297722,
				0.4343535900115967,
				0.07873973250389099
			]
		},
		{
			"mesh":2,
			"name":"papri\u010dka.003",
			"rotation":[
				0.7714719176292419,
				-0.31447893381118774,
				-0.06579640507698059,
				0.5491859316825867
			],
			"scale":[
				0.021303318440914154,
				0.021303318440914154,
				0.021303318440914154
			],
			"translation":[
				0.00516558438539505,
				0.4549625813961029,
				-0.04792817682027817
			]
		},
		{
			"mesh":3,
			"name":"papri\u010dka.004",
			"rotation":[
				-0.7349387407302856,
				0.6565096378326416,
				-0.15657667815685272,
				0.06590960919857025
			],
			"scale":[
				0.021303318440914154,
				0.021303318440914154,
				0.021303318440914154
			],
			"translation":[
				-0.07157506048679352,
				0.5510216355323792,
				0.03972060978412628
			]
		},
		{
			"mesh":4,
			"name":"papri\u010dka.005",
			"rotation":[
				0.7805884480476379,
				-0.5867651104927063,
				-0.014457947574555874,
				0.2148938775062561
			],
			"scale":[
				0.021303318440914154,
				0.021303318440914154,
				0.021303318440914154
			],
			"translation":[
				-0.060683999210596085,
				0.6058727502822876,
				-0.017173245549201965
			]
		}
	],
	"animations":[
		{
			"channels":[
				{
					"sampler":0,
					"target":{
						"node":0,
						"path":"translation"
					}
				},
				{
					"sampler":1,
					"target":{
						"node":0,
						"path":"rotation"
					}
				}
			],
			"name":"papri\u010dka.001Action",
			"samplers":[
				{
					"input":52,
					"interpolation":"LINEAR",
					"output":53
				},
				{
					"input":52,
					"interpolation":"LINEAR",
					"output":54
				}
			]
		},
		{
			"channels":[
				{
					"sampler":0,
					"target":{
						"node":1,
						"path":"translation"
					}
				},
				{
					"sampler":1,
					"target":{
						"node":1,
						"path":"rotation"
					}
				}
			],
			"name":"papri\u010dka.002Action",
			"samplers":[
				{
					"input":52,
					"interpolation":"LINEAR",
					"output":55
				},
				{
					"input":52,
					"interpolation":"LINEAR",
					"output":56
				}
			]
		},
		{
			"channels":[
				{
					"sampler":0,
					"target":{
						"node":2,
						"path":"translation"
					}
				},
				{
					"sampler":1,
					"target":{
						"node":2,
						"path":"rotation"
					}
				}
			],
			"name":"papri\u010dka.003Action",
			"samplers":[
				{
					"input":52,
					"interpolation":"LINEAR",
					"output":57
				},
				{
					"input":52,
					"interpolation":"LINEAR",
					"output":58
				}
			]
		},
		{
			"channels":[
				{
					"sampler":0,
					"target":{
						"node":3,
						"path":"translation"
					}
				},
				{
					"sampler":1,
					"target":{
						"node":3,
						"path":"rotation"
					}
				}
			],
			"name":"papri\u010dka.004Action",
			"samplers":[
				{
					"input":52,
					"interpolation":"LINEAR",
					"output":59
				},
				{
					"input":52,
					"interpolation":"LINEAR",
					"output":60
				}
			]
		},
		{
			"channels":[
				{
					"sampler":0,
					"target":{
						"node":4,
						"path":"translation"
					}
				},
				{
					"sampler":1,
					"target":{
						"node":4,
						"path":"rotation"
					}
				}
			],
			"name":"papri\u010dka.005Action",
			"samplers":[
				{
					"input":52,
					"interpolation":"LINEAR",
					"output":61
				},
				{
					"input":52,
					"interpolation":"LINEAR",
					"output":62
				}
			]
		}
	],
	"materials":[
		{
			"doubleSided":true,
			"extensions":{
				"KHR_materials_unlit":{}
			},
			"name":"Material.007",
			"pbrMetallicRoughness":{
				"baseColorTexture":{
					"index":0
				},
				"metallicFactor":0,
				"roughnessFactor":0.9
			}
		},
		{
			"doubleSided":true,
			"extensions":{
				"KHR_materials_unlit":{}
			},
			"name":"Material.005",
			"pbrMetallicRoughness":{
				"baseColorTexture":{
					"index":1
				},
				"metallicFactor":0,
				"roughnessFactor":0.9
			}
		}
	],
	"meshes":[
		{
			"name":"Cone.001",
			"primitives":[
				{
					"attributes":{
						"POSITION":0,
						"NORMAL":1,
						"TEXCOORD_0":2,
						"COLOR_0":3,
						"COLOR_1":4
					},
					"indices":5,
					"material":0
				},
				{
					"attributes":{
						"POSITION":6,
						"NORMAL":7,
						"TEXCOORD_0":8,
						"COLOR_0":9,
						"COLOR_1":10
					},
					"indices":11,
					"material":1
				}
			]
		},
		{
			"name":"Cone.002",
			"primitives":[
				{
					"attributes":{
						"POSITION":12,
						"NORMAL":13,
						"TEXCOORD_0":14,
						"COLOR_0":15,
						"COLOR_1":16
					},
					"indices":5,
					"material":0
				},
				{
					"attributes":{
						"POSITION":17,
						"NORMAL":18,
						"TEXCOORD_0":19,
						"COLOR_0":20,
						"COLOR_1":21
					},
					"indices":11,
					"material":1
				}
			]
		},
		{
			"name":"Cone.003",
			"primitives":[
				{
					"attributes":{
						"POSITION":22,
						"NORMAL":23,
						"TEXCOORD_0":24,
						"COLOR_0":25,
						"COLOR_1":26
					},
					"indices":5,
					"material":0
				},
				{
					"attributes":{
						"POSITION":27,
						"NORMAL":28,
						"TEXCOORD_0":29,
						"COLOR_0":30,
						"COLOR_1":31
					},
					"indices":11,
					"material":1
				}
			]
		},
		{
			"name":"Cone.004",
			"primitives":[
				{
					"attributes":{
						"POSITION":32,
						"NORMAL":33,
						"TEXCOORD_0":34,
						"COLOR_0":35,
						"COLOR_1":36
					},
					"indices":5,
					"material":0
				},
				{
					"attributes":{
						"POSITION":37,
						"NORMAL":38,
						"TEXCOORD_0":39,
						"COLOR_0":40,
						"COLOR_1":41
					},
					"indices":11,
					"material":1
				}
			]
		},
		{
			"name":"Cone.005",
			"primitives":[
				{
					"attributes":{
						"POSITION":42,
						"NORMAL":43,
						"TEXCOORD_0":44,
						"COLOR_0":45,
						"COLOR_1":46
					},
					"indices":5,
					"material":0
				},
				{
					"attributes":{
						"POSITION":47,
						"NORMAL":48,
						"TEXCOORD_0":49,
						"COLOR_0":50,
						"COLOR_1":51
					},
					"indices":11,
					"material":1
				}
			]
		}
	],
	"textures":[
		{
			"extensions":{
				"EXT_texture_webp":{
					"source":0
				}
			},
			"sampler":0,
			"source":1
		},
		{
			"extensions":{
				"EXT_texture_webp":{
					"source":2
				}
			},
			"sampler":0,
			"source":3
		}
	],
	"images":[
		{
			"mimeType":"image/webp",
			"name":"papri\u010dka txt 2",
			"uri":"papricky%20TXT/papri%C4%8Dka%20txt%202.webp"
		},
		{
			"mimeType":"image/png",
			"name":"papri\u010dka txt 2",
			"uri":"papricky%20TXT/papri%C4%8Dka%20txt%202.png"
		},
		{
			"mimeType":"image/webp",
			"name":"Papri\u010dka txt",
			"uri":"papricky%20TXT/Papri%C4%8Dka%20txt.webp"
		},
		{
			"mimeType":"image/png",
			"name":"Papri\u010dka txt",
			"uri":"papricky%20TXT/Papri%C4%8Dka%20txt.png"
		}
	],
	"accessors":[
		{
			"bufferView":0,
			"componentType":5126,
			"count":4957,
			"max":[
				0.368466854095459,
				0.5239219069480896,
				0.41081514954566956
			],
			"min":[
				-0.3314190208911896,
				-1.6812909841537476,
				-0.24777735769748688
			],
			"type":"VEC3"
		},
		{
			"bufferView":1,
			"componentType":5126,
			"count":4957,
			"type":"VEC3"
		},
		{
			"bufferView":2,
			"componentType":5126,
			"count":4957,
			"type":"VEC2"
		},
		{
			"bufferView":3,
			"componentType":5121,
			"count":4957,
			"normalized":true,
			"type":"VEC4"
		},
		{
			"bufferView":4,
			"componentType":5123,
			"count":4957,
			"normalized":true,
			"type":"VEC4"
		},
		{
			"bufferView":5,
			"componentType":5123,
			"count":25338,
			"type":"SCALAR"
		},
		{
			"bufferView":6,
			"componentType":5126,
			"count":50787,
			"max":[
				0.3188430070877075,
				-1.647943377494812,
				0.3715797960758209
			],
			"min":[
				-0.30511409044265747,
				-2.2788264751434326,
				-0.232853502035141
			],
			"type":"VEC3"
		},
		{
			"bufferView":7,
			"componentType":5126,
			"count":50787,
			"type":"VEC3"
		},
		{
			"bufferView":8,
			"componentType":5126,
			"count":50787,
			"type":"VEC2"
		},
		{
			"bufferView":9,
			"componentType":5121,
			"count":50787,
			"normalized":true,
			"type":"VEC4"
		},
		{
			"bufferView":10,
			"componentType":5123,
			"count":50787,
			"normalized":true,
			"type":"VEC4"
		},
		{
			"bufferView":11,
			"componentType":5123,
			"count":276480,
			"type":"SCALAR"
		},
		{
			"bufferView":12,
			"componentType":5126,
			"count":4957,
			"max":[
				0.368466854095459,
				0.5239219069480896,
				0.41081514954566956
			],
			"min":[
				-0.3314190208911896,
				-1.6812909841537476,
				-0.24777735769748688
			],
			"type":"VEC3"
		},
		{
			"bufferView":13,
			"componentType":5126,
			"count":4957,
			"type":"VEC3"
		},
		{
			"bufferView":14,
			"componentType":5126,
			"count":4957,
			"type":"VEC2"
		},
		{
			"bufferView":15,
			"componentType":5121,
			"count":4957,
			"normalized":true,
			"type":"VEC4"
		},
		{
			"bufferView":16,
			"componentType":5123,
			"count":4957,
			"normalized":true,
			"type":"VEC4"
		},
		{
			"bufferView":17,
			"componentType":5126,
			"count":50787,
			"max":[
				0.3188430070877075,
				-1.647943377494812,
				0.3715797960758209
			],
			"min":[
				-0.30511409044265747,
				-2.2788264751434326,
				-0.232853502035141
			],
			"type":"VEC3"
		},
		{
			"bufferView":18,
			"componentType":5126,
			"count":50787,
			"type":"VEC3"
		},
		{
			"bufferView":19,
			"componentType":5126,
			"count":50787,
			"type":"VEC2"
		},
		{
			"bufferView":20,
			"componentType":5121,
			"count":50787,
			"normalized":true,
			"type":"VEC4"
		},
		{
			"bufferView":21,
			"componentType":5123,
			"count":50787,
			"normalized":true,
			"type":"VEC4"
		},
		{
			"bufferView":22,
			"componentType":5126,
			"count":4957,
			"max":[
				0.368466854095459,
				0.5239219069480896,
				0.41081514954566956
			],
			"min":[
				-0.3314190208911896,
				-1.6812909841537476,
				-0.24777735769748688
			],
			"type":"VEC3"
		},
		{
			"bufferView":23,
			"componentType":5126,
			"count":4957,
			"type":"VEC3"
		},
		{
			"bufferView":24,
			"componentType":5126,
			"count":4957,
			"type":"VEC2"
		},
		{
			"bufferView":25,
			"componentType":5121,
			"count":4957,
			"normalized":true,
			"type":"VEC4"
		},
		{
			"bufferView":26,
			"componentType":5123,
			"count":4957,
			"normalized":true,
			"type":"VEC4"
		},
		{
			"bufferView":27,
			"componentType":5126,
			"count":50787,
			"max":[
				0.3188430070877075,
				-1.647943377494812,
				0.3715797960758209
			],
			"min":[
				-0.30511409044265747,
				-2.2788264751434326,
				-0.232853502035141
			],
			"type":"VEC3"
		},
		{
			"bufferView":28,
			"componentType":5126,
			"count":50787,
			"type":"VEC3"
		},
		{
			"bufferView":29,
			"componentType":5126,
			"count":50787,
			"type":"VEC2"
		},
		{
			"bufferView":30,
			"componentType":5121,
			"count":50787,
			"normalized":true,
			"type":"VEC4"
		},
		{
			"bufferView":31,
			"componentType":5123,
			"count":50787,
			"normalized":true,
			"type":"VEC4"
		},
		{
			"bufferView":32,
			"componentType":5126,
			"count":4957,
			"max":[
				0.368466854095459,
				0.5239219069480896,
				0.41081514954566956
			],
			"min":[
				-0.3314190208911896,
				-1.6812909841537476,
				-0.24777735769748688
			],
			"type":"VEC3"
		},
		{
			"bufferView":33,
			"componentType":5126,
			"count":4957,
			"type":"VEC3"
		},
		{
			"bufferView":34,
			"componentType":5126,
			"count":4957,
			"type":"VEC2"
		},
		{
			"bufferView":35,
			"componentType":5121,
			"count":4957,
			"normalized":true,
			"type":"VEC4"
		},
		{
			"bufferView":36,
			"componentType":5123,
			"count":4957,
			"normalized":true,
			"type":"VEC4"
		},
		{
			"bufferView":37,
			"componentType":5126,
			"count":50787,
			"max":[
				0.3188430070877075,
				-1.647943377494812,
				0.3715797960758209
			],
			"min":[
				-0.30511409044265747,
				-2.2788264751434326,
				-0.232853502035141
			],
			"type":"VEC3"
		},
		{
			"bufferView":38,
			"componentType":5126,
			"count":50787,
			"type":"VEC3"
		},
		{
			"bufferView":39,
			"componentType":5126,
			"count":50787,
			"type":"VEC2"
		},
		{
			"bufferView":40,
			"componentType":5121,
			"count":50787,
			"normalized":true,
			"type":"VEC4"
		},
		{
			"bufferView":41,
			"componentType":5123,
			"count":50787,
			"normalized":true,
			"type":"VEC4"
		},
		{
			"bufferView":42,
			"componentType":5126,
			"count":4957,
			"max":[
				0.368466854095459,
				0.5239219069480896,
				0.41081514954566956
			],
			"min":[
				-0.3314190208911896,
				-1.6812909841537476,
				-0.24777735769748688
			],
			"type":"VEC3"
		},
		{
			"bufferView":43,
			"componentType":5126,
			"count":4957,
			"type":"VEC3"
		},
		{
			"bufferView":44,
			"componentType":5126,
			"count":4957,
			"type":"VEC2"
		},
		{
			"bufferView":45,
			"componentType":5121,
			"count":4957,
			"normalized":true,
			"type":"VEC4"
		},
		{
			"bufferView":46,
			"componentType":5123,
			"count":4957,
			"normalized":true,
			"type":"VEC4"
		},
		{
			"bufferView":47,
			"componentType":5126,
			"count":50787,
			"max":[
				0.3188430070877075,
				-1.647943377494812,
				0.3715797960758209
			],
			"min":[
				-0.30511409044265747,
				-2.2788264751434326,
				-0.232853502035141
			],
			"type":"VEC3"
		},
		{
			"bufferView":48,
			"componentType":5126,
			"count":50787,
			"type":"VEC3"
		},
		{
			"bufferView":49,
			"componentType":5126,
			"count":50787,
			"type":"VEC2"
		},
		{
			"bufferView":50,
			"componentType":5121,
			"count":50787,
			"normalized":true,
			"type":"VEC4"
		},
		{
			"bufferView":51,
			"componentType":5123,
			"count":50787,
			"normalized":true,
			"type":"VEC4"
		},
		{
			"bufferView":52,
			"componentType":5126,
			"count":31,
			"max":[
				1.25
			],
			"min":[
				0
			],
			"type":"SCALAR"
		},
		{
			"bufferView":53,
			"componentType":5126,
			"count":31,
			"type":"VEC3"
		},
		{
			"bufferView":54,
			"componentType":5126,
			"count":31,
			"type":"VEC4"
		},
		{
			"bufferView":55,
			"componentType":5126,
			"count":31,
			"type":"VEC3"
		},
		{
			"bufferView":56,
			"componentType":5126,
			"count":31,
			"type":"VEC4"
		},
		{
			"bufferView":57,
			"componentType":5126,
			"count":31,
			"type":"VEC3"
		},
		{
			"bufferView":58,
			"componentType":5126,
			"count":31,
			"type":"VEC4"
		},
		{
			"bufferView":59,
			"componentType":5126,
			"count":31,
			"type":"VEC3"
		},
		{
			"bufferView":60,
			"componentType":5126,
			"count":31,
			"type":"VEC4"
		},
		{
			"bufferView":61,
			"componentType":5126,
			"count":31,
			"type":"VEC3"
		},
		{
			"bufferView":62,
			"componentType":5126,
			"count":31,
			"type":"VEC4"
		}
	],
	"bufferViews":[
		{
			"buffer":0,
			"byteLength":59484,
			"byteOffset":0,
			"target":34962
		},
		{
			"buffer":0,
			"byteLength":59484,
			"byteOffset":59484,
			"target":34962
		},
		{
			"buffer":0,
			"byteLength":39656,
			"byteOffset":118968,
			"target":34962
		},
		{
			"buffer":0,
			"byteLength":19828,
			"byteOffset":158624,
			"target":34962
		},
		{
			"buffer":0,
			"byteLength":39656,
			"byteOffset":178452,
			"target":34962
		},
		{
			"buffer":0,
			"byteLength":50676,
			"byteOffset":218108,
			"target":34963
		},
		{
			"buffer":0,
			"byteLength":609444,
			"byteOffset":268784,
			"target":34962
		},
		{
			"buffer":0,
			"byteLength":609444,
			"byteOffset":878228,
			"target":34962
		},
		{
			"buffer":0,
			"byteLength":406296,
			"byteOffset":1487672,
			"target":34962
		},
		{
			"buffer":0,
			"byteLength":203148,
			"byteOffset":1893968,
			"target":34962
		},
		{
			"buffer":0,
			"byteLength":406296,
			"byteOffset":2097116,
			"target":34962
		},
		{
			"buffer":0,
			"byteLength":552960,
			"byteOffset":2503412,
			"target":34963
		},
		{
			"buffer":0,
			"byteLength":59484,
			"byteOffset":3056372,
			"target":34962
		},
		{
			"buffer":0,
			"byteLength":59484,
			"byteOffset":3115856,
			"target":34962
		},
		{
			"buffer":0,
			"byteLength":39656,
			"byteOffset":3175340,
			"target":34962
		},
		{
			"buffer":0,
			"byteLength":19828,
			"byteOffset":3214996,
			"target":34962
		},
		{
			"buffer":0,
			"byteLength":39656,
			"byteOffset":3234824,
			"target":34962
		},
		{
			"buffer":0,
			"byteLength":609444,
			"byteOffset":3274480,
			"target":34962
		},
		{
			"buffer":0,
			"byteLength":609444,
			"byteOffset":3883924,
			"target":34962
		},
		{
			"buffer":0,
			"byteLength":406296,
			"byteOffset":4493368,
			"target":34962
		},
		{
			"buffer":0,
			"byteLength":203148,
			"byteOffset":4899664,
			"target":34962
		},
		{
			"buffer":0,
			"byteLength":406296,
			"byteOffset":5102812,
			"target":34962
		},
		{
			"buffer":0,
			"byteLength":59484,
			"byteOffset":5509108,
			"target":34962
		},
		{
			"buffer":0,
			"byteLength":59484,
			"byteOffset":5568592,
			"target":34962
		},
		{
			"buffer":0,
			"byteLength":39656,
			"byteOffset":5628076,
			"target":34962
		},
		{
			"buffer":0,
			"byteLength":19828,
			"byteOffset":5667732,
			"target":34962
		},
		{
			"buffer":0,
			"byteLength":39656,
			"byteOffset":5687560,
			"target":34962
		},
		{
			"buffer":0,
			"byteLength":609444,
			"byteOffset":5727216,
			"target":34962
		},
		{
			"buffer":0,
			"byteLength":609444,
			"byteOffset":6336660,
			"target":34962
		},
		{
			"buffer":0,
			"byteLength":406296,
			"byteOffset":6946104,
			"target":34962
		},
		{
			"buffer":0,
			"byteLength":203148,
			"byteOffset":7352400,
			"target":34962
		},
		{
			"buffer":0,
			"byteLength":406296,
			"byteOffset":7555548,
			"target":34962
		},
		{
			"buffer":0,
			"byteLength":59484,
			"byteOffset":7961844,
			"target":34962
		},
		{
			"buffer":0,
			"byteLength":59484,
			"byteOffset":8021328,
			"target":34962
		},
		{
			"buffer":0,
			"byteLength":39656,
			"byteOffset":8080812,
			"target":34962
		},
		{
			"buffer":0,
			"byteLength":19828,
			"byteOffset":8120468,
			"target":34962
		},
		{
			"buffer":0,
			"byteLength":39656,
			"byteOffset":8140296,
			"target":34962
		},
		{
			"buffer":0,
			"byteLength":609444,
			"byteOffset":8179952,
			"target":34962
		},
		{
			"buffer":0,
			"byteLength":609444,
			"byteOffset":8789396,
			"target":34962
		},
		{
			"buffer":0,
			"byteLength":406296,
			"byteOffset":9398840,
			"target":34962
		},
		{
			"buffer":0,
			"byteLength":203148,
			"byteOffset":9805136,
			"target":34962
		},
		{
			"buffer":0,
			"byteLength":406296,
			"byteOffset":10008284,
			"target":34962
		},
		{
			"buffer":0,
			"byteLength":59484,
			"byteOffset":10414580,
			"target":34962
		},
		{
			"buffer":0,
			"byteLength":59484,
			"byteOffset":10474064,
			"target":34962
		},
		{
			"buffer":0,
			"byteLength":39656,
			"byteOffset":10533548,
			"target":34962
		},
		{
			"buffer":0,
			"byteLength":19828,
			"byteOffset":10573204,
			"target":34962
		},
		{
			"buffer":0,
			"byteLength":39656,
			"byteOffset":10593032,
			"target":34962
		},
		{
			"buffer":0,
			"byteLength":609444,
			"byteOffset":10632688,
			"target":34962
		},
		{
			"buffer":0,
			"byteLength":609444,
			"byteOffset":11242132,
			"target":34962
		},
		{
			"buffer":0,
			"byteLength":406296,
			"byteOffset":11851576,
			"target":34962
		},
		{
			"buffer":0,
			"byteLength":203148,
			"byteOffset":12257872,
			"target":34962
		},
		{
			"buffer":0,
			"byteLength":406296,
			"byteOffset":12461020,
			"target":34962
		},
		{
			"buffer":0,
			"byteLength":124,
			"byteOffset":12867316
		},
		{
			"buffer":0,
			"byteLength":372,
			"byteOffset":12867440
		},
		{
			"buffer":0,
			"byteLength":496,
			"byteOffset":12867812
		},
		{
			"buffer":0,
			"byteLength":372,
			"byteOffset":12868308
		},
		{
			"buffer":0,
			"byteLength":496,
			"byteOffset":12868680
		},
		{
			"buffer":0,
			"byteLength":372,
			"byteOffset":12869176
		},
		{
			"buffer":0,
			"byteLength":496,
			"byteOffset":12869548
		},
		{
			"buffer":0,
			"byteLength":372,
			"byteOffset":12870044
		},
		{
			"buffer":0,
			"byteLength":496,
			"byteOffset":12870416
		},
		{
			"buffer":0,
			"byteLength":372,
			"byteOffset":12870912
		},
		{
			"buffer":0,
			"byteLength":496,
			"byteOffset":12871284
		}
	],
	"samplers":[
		{
			"magFilter":9729,
			"minFilter":9987
		}
	],
	"buffers":[
		{
			"byteLength":12871780,
			"uri":"papricky.bin"
		}
	]
}
