{
	"asset":{
		"generator":"Khronos glTF Blender I/O v5.0.21",
		"version":"2.0"
	},
	"extensionsUsed":[
		"KHR_materials_unlit",
		"EXT_texture_webp"
	],
	"scene":0,
	"scenes":[
		{
			"name":"Scene",
			"nodes":[
				0
			]
		}
	],
	"nodes":[
		{
			"mesh":0,
			"name":"Niva",
			"scale":[
				0.10000000149011612,
				0.10000000149011612,
				0.10000000149011612
			]
		}
	],
	"animations":[
		{
			"channels":[
				{
					"sampler":0,
					"target":{
						"node":0,
						"path":"translation"
					}
				},
				{
					"sampler":1,
					"target":{
						"node":0,
						"path":"rotation"
					}
				},
				{
					"sampler":2,
					"target":{
						"node":0,
						"path":"scale"
					}
				}
			],
			"name":"SyrAction.002",
			"samplers":[
				{
					"input":7,
					"interpolation":"STEP",
					"output":8
				},
				{
					"input":7,
					"interpolation":"STEP",
					"output":9
				},
				{
					"input":10,
					"interpolation":"LINEAR",
					"output":11
				}
			]
		}
	],
	"materials":[
		{
			"doubleSided":true,
			"extensions":{
				"KHR_materials_unlit":{}
			},
			"name":"Material",
			"pbrMetallicRoughness":{
				"baseColorTexture":{
					"index":0
				},
				"metallicFactor":0,
				"roughnessFactor":0.9
			}
		}
	],
	"meshes":[
		{
			"name":"Circle.008",
			"primitives":[
				{
					"attributes":{
						"POSITION":0,
						"NORMAL":1,
						"TEXCOORD_0":2,
						"TANGENT":3,
						"COLOR_0":4,
						"COLOR_1":5
					},
					"indices":6,
					"material":0
				}
			]
		}
	],
	"textures":[
		{
			"extensions":{
				"EXT_texture_webp":{
					"source":0
				}
			},
			"sampler":0,
			"source":1
		}
	],
	"images":[
		{
			"mimeType":"image/webp",
			"name":"Niva Text",
			"uri":"niva%20TXT/Niva%20Text.webp"
		},
		{
			"mimeType":"image/png",
			"name":"Niva Text",
			"uri":"niva%20TXT/Niva%20Text.png"
		}
	],
	"accessors":[
		{
			"bufferView":0,
			"componentType":5126,
			"count":57195,
			"max":[
				0.14310915768146515,
				0.0146034462377429,
				0.14491067826747894
			],
			"min":[
				-0.13914364576339722,
				-0.006269713863730431,
				-0.14082899689674377
			],
			"type":"VEC3"
		},
		{
			"bufferView":1,
			"componentType":5126,
			"count":57195,
			"type":"VEC3"
		},
		{
			"bufferView":2,
			"componentType":5126,
			"count":57195,
			"type":"VEC2"
		},
		{
			"bufferView":3,
			"componentType":5126,
			"count":57195,
			"type":"VEC4"
		},
		{
			"bufferView":4,
			"componentType":5121,
			"count":57195,
			"normalized":true,
			"type":"VEC4"
		},
		{
			"bufferView":5,
			"componentType":5123,
			"count":57195,
			"normalized":true,
			"type":"VEC4"
		},
		{
			"bufferView":6,
			"componentType":5123,
			"count":331776,
			"type":"SCALAR"
		},
		{
			"bufferView":7,
			"componentType":5126,
			"count":2,
			"max":[
				0.5833333333333334
			],
			"min":[
				0.041666666666666664
			],
			"type":"SCALAR"
		},
		{
			"bufferView":8,
			"componentType":5126,
			"count":2,
			"type":"VEC3"
		},
		{
			"bufferView":9,
			"componentType":5126,
			"count":2,
			"type":"VEC4"
		},
		{
			"bufferView":10,
			"componentType":5126,
			"count":14,
			"max":[
				0.5833333333333334
			],
			"min":[
				0.041666666666666664
			],
			"type":"SCALAR"
		},
		{
			"bufferView":11,
			"componentType":5126,
			"count":14,
			"type":"VEC3"
		}
	],
	"bufferViews":[
		{
			"buffer":0,
			"byteLength":686340,
			"byteOffset":0,
			"target":34962
		},
		{
			"buffer":0,
			"byteLength":686340,
			"byteOffset":686340,
			"target":34962
		},
		{
			"buffer":0,
			"byteLength":457560,
			"byteOffset":1372680,
			"target":34962
		},
		{
			"buffer":0,
			"byteLength":915120,
			"byteOffset":1830240,
			"target":34962
		},
		{
			"buffer":0,
			"byteLength":228780,
			"byteOffset":2745360,
			"target":34962
		},
		{
			"buffer":0,
			"byteLength":457560,
			"byteOffset":2974140,
			"target":34962
		},
		{
			"buffer":0,
			"byteLength":663552,
			"byteOffset":3431700,
			"target":34963
		},
		{
			"buffer":0,
			"byteLength":8,
			"byteOffset":4095252
		},
		{
			"buffer":0,
			"byteLength":24,
			"byteOffset":4095260
		},
		{
			"buffer":0,
			"byteLength":32,
			"byteOffset":4095284
		},
		{
			"buffer":0,
			"byteLength":56,
			"byteOffset":4095316
		},
		{
			"buffer":0,
			"byteLength":168,
			"byteOffset":4095372
		}
	],
	"samplers":[
		{
			"magFilter":9729,
			"minFilter":9987
		}
	],
	"buffers":[
		{
			"byteLength":4095540,
			"uri":"niva.bin"
		}
	]
}
