{
	"asset":{
		"generator":"Khronos glTF Blender I/O v5.0.21",
		"version":"2.0"
	},
	"scene":0,
	"scenes":[
		{
			"name":"Scene",
			"nodes":[
				0
			]
		}
	],
	"nodes":[
		{
			"mesh":0,
			"name":"Circle",
			"translation":[
				-3.68654727935791e-05,
				-6,
				-0.00017263926565647125
			]
		}
	],
	"animations":[
		{
			"channels":[
				{
					"sampler":0,
					"target":{
						"node":0,
						"path":"translation"
					}
				},
				{
					"sampler":1,
					"target":{
						"node":0,
						"path":"rotation"
					}
				},
				{
					"sampler":2,
					"target":{
						"node":0,
						"path":"scale"
					}
				}
			],
			"name":"CircleAction",
			"samplers":[
				{
					"input":5,
					"interpolation":"LINEAR",
					"output":6
				},
				{
					"input":5,
					"interpolation":"LINEAR",
					"output":7
				},
				{
					"input":8,
					"interpolation":"STEP",
					"output":9
				}
			]
		}
	],
	"materials":[
		{
			"doubleSided":true,
			"name":"Material.013",
			"pbrMetallicRoughness":{
				"metallicFactor":0.38181817531585693,
				"roughnessFactor":0
			}
		}
	],
	"meshes":[
		{
			"name":"Circle.028",
			"primitives":[
				{
					"attributes":{
						"POSITION":0,
						"NORMAL":1,
						"TEXCOORD_0":2,
						"COLOR_0":3
					},
					"indices":4,
					"material":0
				}
			]
		}
	],
	"accessors":[
		{
			"bufferView":0,
			"componentType":5126,
			"count":81310,
			"max":[
				0.16890031099319458,
				0.010295059531927109,
				0.16890031099319458
			],
			"min":[
				-0.16890031099319458,
				3.0632372727268375e-06,
				-0.16890031099319458
			],
			"type":"VEC3"
		},
		{
			"bufferView":1,
			"componentType":5126,
			"count":81310,
			"type":"VEC3"
		},
		{
			"bufferView":2,
			"componentType":5126,
			"count":81310,
			"type":"VEC2"
		},
		{
			"bufferView":3,
			"componentType":5126,
			"count":81310,
			"type":"VEC3"
		},
		{
			"bufferView":4,
			"componentType":5125,
			"count":483504,
			"type":"SCALAR"
		},
		{
			"bufferView":5,
			"componentType":5126,
			"count":67,
			"max":[
				2.75
			],
			"min":[
				0
			],
			"type":"SCALAR"
		},
		{
			"bufferView":6,
			"componentType":5126,
			"count":67,
			"type":"VEC3"
		},
		{
			"bufferView":7,
			"componentType":5126,
			"count":67,
			"type":"VEC4"
		},
		{
			"bufferView":8,
			"componentType":5126,
			"count":2,
			"max":[
				2.75
			],
			"min":[
				0
			],
			"type":"SCALAR"
		},
		{
			"bufferView":9,
			"componentType":5126,
			"count":2,
			"type":"VEC3"
		}
	],
	"bufferViews":[
		{
			"buffer":0,
			"byteLength":975720,
			"byteOffset":0,
			"target":34962
		},
		{
			"buffer":0,
			"byteLength":975720,
			"byteOffset":975720,
			"target":34962
		},
		{
			"buffer":0,
			"byteLength":650480,
			"byteOffset":1951440,
			"target":34962
		},
		{
			"buffer":0,
			"byteLength":975720,
			"byteOffset":2601920,
			"target":34962
		},
		{
			"buffer":0,
			"byteLength":1934016,
			"byteOffset":3577640,
			"target":34963
		},
		{
			"buffer":0,
			"byteLength":268,
			"byteOffset":5511656
		},
		{
			"buffer":0,
			"byteLength":804,
			"byteOffset":5511924
		},
		{
			"buffer":0,
			"byteLength":1072,
			"byteOffset":5512728
		},
		{
			"buffer":0,
			"byteLength":8,
			"byteOffset":5513800
		},
		{
			"buffer":0,
			"byteLength":24,
			"byteOffset":5513808
		}
	],
	"buffers":[
		{
			"byteLength":5513832,
			"uri":"tanier.bin"
		}
	]
}
